<?xml version="1.0" encoding="utf-8"?>
<!-- Generator: Adobe Illustrator 23.0.2, SVG Export Plug-In . SVG Version: 6.00 Build 0)  -->
<svg version="1.1" id="Calque_1" xmlns="http://www.w3.org/2000/svg" xmlns:xlink="http://www.w3.org/1999/xlink" x="0px" y="0px"
	 viewBox="0 0 718.5 161.8" style="enable-background:new 0 0 718.5 161.8;" xml:space="preserve">
<style type="text/css">
	.st0{fill:#F7931E;}
	.st1{fill:#BFBFBF;}
</style>
<polygon class="st0" points="7.8,28.6 7.4,28.6 7.4,28.2 3.1,24.7 3.1,32.7 7.7,32.7 "/>
<polygon class="st0" points="7.9,28.6 7.8,28.6 7.7,32.7 11.6,32.7 12.3,32.2 "/>
<polygon class="st0" points="12.3,32.2 11.6,32.7 12.9,32.7 "/>
<polygon class="st0" points="3.1,15.6 3.1,16.1 3.4,15.8 "/>
<polygon class="st0" points="7.4,18.7 3.4,15.8 3.1,16.1 3.1,24.7 7.4,28.2 "/>
<polygon class="st0" points="7.4,11.9 7.4,8.1 8.3,8.1 8.4,4 3.1,4 3.1,15.6 3.4,15.8 "/>
<polygon class="st0" points="7.4,11.9 3.4,15.8 7.4,18.7 "/>
<polygon class="st0" points="15.5,4 8.4,4 8.3,8.1 11.3,8.1 "/>
<path class="st0" d="M28.4,24c0-1-0.2-1.9-0.6-2.7l-4,2.8c0,0.5-0.1,1-0.2,1.5c-0.2,0.5-0.4,1-0.6,1.5c-0.3,0.4-0.6,0.8-1,1.1
	c-0.3,0.2-0.6,0.3-1,0.4l3.9,2.9c0.5-0.3,0.9-0.8,1.3-1.2c0.7-0.8,1.2-1.7,1.6-2.8C28.2,26.3,28.4,25.2,28.4,24z"/>
<path class="st0" d="M27.8,21.3c-0.1-0.2-0.1-0.3-0.2-0.5c-0.5-0.9-1.1-1.7-1.7-2.4c0.6-0.6,1.1-1.4,1.7-2.4c0.5-1,0.8-2.1,0.8-3.3
	s-0.2-2.4-0.6-3.5s-0.9-2-1.6-2.8S24.7,5,23.9,4.6C22.9,4.2,22,4,21,4h-5.5l-4.2,4.1h9.1c0.5,0,1,0.1,1.4,0.4
	c0.4,0.3,0.8,0.7,1.1,1.1c0.3,0.4,0.5,0.9,0.7,1.5c0.2,0.5,0.3,1.1,0.3,1.6c0,0.6-0.2,1.2-0.6,1.9s-0.9,1.2-1.5,1.7h-5.9v4.1h5.9
	c0.6,0.5,1.1,1.1,1.5,1.7c0.4,0.7,0.6,1.3,0.6,1.9v0.1L27.8,21.3z"/>
<polygon class="st0" points="7.9,28.6 12.3,32.2 17.4,28.6 "/>
<path class="st0" d="M20.4,28.6h-3l-5.1,3.6l0.6,0.5H21c1,0,2-0.2,2.9-0.7c0.4-0.2,0.7-0.4,1-0.6L21,28.5
	C20.7,28.6,20.6,28.6,20.4,28.6z"/>
<polygon class="st0" points="38.2,4 33.9,4 33.9,17 38.2,13.9 "/>
<polygon class="st0" points="38.2,13.9 33.9,17 33.9,32.7 38.2,32.7 "/>
<polygon class="st0" points="44.1,4 44.1,9.8 52.4,4 "/>
<rect x="51.4" y="17.1" class="st0" width="14.3" height="4.1"/>
<polygon class="st0" points="62.5,28.6 48.5,28.6 48.5,8.1 66,8.1 66,4 52.4,4 44.1,9.8 44.1,32.7 55,32.7 "/>
<polygon class="st0" points="66,28.6 62.5,28.6 55,32.7 66,32.7 "/>
<polygon class="st0" points="71.9,4 71.9,23.6 76.2,21.2 76.2,9.3 82.4,17.9 86.2,15.8 78,4 "/>
<polygon class="st0" points="71.9,32.7 76.2,32.7 76.2,21.2 71.9,23.6 "/>
<polygon class="st0" points="94.3,27.3 86.2,15.8 82.4,17.9 92.9,32.7 95.6,32.7 98.7,31.1 98.7,9.1 94.3,11.5 "/>
<polygon class="st0" points="98.7,32.7 98.7,31.1 95.6,32.7 "/>
<polygon class="st0" points="94.3,11.5 98.7,9.1 98.7,4 94.3,4 "/>
<polygon class="st0" points="108.1,4.1 108,4 103,4 104.1,6.2 "/>
<polygon class="st0" points="127.8,16.4 134.1,4 129,4 122.8,16.4 125.2,17.7 "/>
<polygon class="st0" points="125.2,17.7 122.8,16.4 121.2,19.7 "/>
<polygon class="st0" points="104.4,6.8 112.9,23.9 116.8,22 111.1,10.3 "/>
<polygon class="st0" points="108.1,4.1 104.1,6.2 104.4,6.8 111.1,10.3 "/>
<polygon class="st0" points="125.2,17.7 121.2,19.7 118.4,25.4 116.8,22 112.9,23.9 118.4,35 126.7,18.5 "/>
<polygon class="st0" points="127.8,16.4 125.2,17.7 126.7,18.5 "/>
<polygon class="st0" points="138.3,24.6 142.6,26.8 142.6,8.9 138.3,11.1 "/>
<polygon class="st0" points="142.6,28.6 142.6,26.8 138.3,24.6 138.3,32.7 153.8,32.7 146,28.6 "/>
<polygon class="st0" points="146,28.6 153.8,32.7 154.8,32.7 153.7,28.6 "/>
<polygon class="st0" points="160.1,28.6 153.7,28.6 154.8,32.7 160.1,32.7 "/>
<polygon class="st0" points="152.3,4 147.6,4 148.1,6.1 "/>
<polygon class="st0" points="147.6,4 138.3,4 138.3,11.1 142.6,8.9 142.6,8.1 144.2,8.1 148.1,6.1 "/>
<polygon class="st0" points="144.2,8.1 148.6,8.1 148.1,6.1 "/>
<polygon class="st0" points="160.1,4 152.3,4 148.1,6.1 148.6,8.1 160.1,8.1 "/>
<polygon class="st0" points="159.8,21.2 159.8,17.1 150.8,17.1 151.9,21.2 "/>
<polygon class="st0" points="145.6,21.2 151.9,21.2 150.8,17.1 145.6,17.1 "/>
<polygon class="st0" points="172.2,4 166.1,4 166.1,32.7 170.4,32.7 170.4,9.3 174.8,15.5 175.8,9.3 "/>
<polygon class="st0" points="175.8,9.3 174.8,15.5 185.4,30.4 187.8,26.5 "/>
<polygon class="st0" points="192.9,4 188.4,4 188.4,25.5 192.9,18.3 "/>
<polygon class="st0" points="188.4,25.5 188.4,27.3 187.8,26.5 185.4,30.4 187,32.7 192.9,32.7 192.9,18.3 "/>
<polygon class="st0" points="198.8,4 198.8,8.7 201.7,4 "/>
<path class="st0" d="M222.2,23.6c-0.5,0.9-1.2,1.7-2,2.3c-0.8,0.7-1.7,1.2-2.6,1.7l-5.8,5.1c0.5,0.1,1.1,0.1,1.7,0.1
	c2,0,3.9-0.4,5.7-1.1c1.8-0.8,3.3-1.8,4.6-3.1c1-1,1.8-2.2,2.5-3.4l-2.3-3.1L222.2,23.6z"/>
<path class="st0" d="M217.1,27.9c-1.2,0.5-2.4,0.7-3.7,0.7s-2.5-0.2-3.7-0.7s-2.2-1.1-3.1-1.9c-0.9-0.8-1.7-1.7-2.3-2.8
	c-0.6-1.1-1-2.2-1.1-3.5V4h-1.5l-2.9,4.7v9.8c0,2,0.4,3.9,1.1,5.6c0.8,1.7,1.8,3.3,3.1,4.6c1.3,1.3,2.9,2.3,4.6,3.1
	c1.3,0.5,2.6,0.9,4,1l5.8-5.1C217.4,27.7,217.3,27.8,217.1,27.9z"/>
<path class="st0" d="M223.3,21.2c-0.2,0.7-0.5,1.3-0.8,2c-0.1,0.2-0.2,0.3-0.3,0.5l1.8-1.5L223.3,21.2z"/>
<path class="st0" d="M228,18.4V4h-4.4v15.7c-0.1,0.5-0.2,1-0.3,1.5l0.7,0.9l4.1-3.5C228,18.5,228,18.5,228,18.4z"/>
<path class="st0" d="M223.9,22.1l2.3,3.1c0.2-0.4,0.4-0.8,0.6-1.2c0.8-1.7,1.1-3.5,1.1-5.5L223.9,22.1z"/>
<polygon class="st0" points="238.2,28.6 238.2,9.6 233.9,13.4 233.9,32.7 243,32.7 246.8,28.6 "/>
<polygon class="st0" points="246.8,28.6 243,32.7 250.9,32.7 250.9,28.6 "/>
<polygon class="st0" points="255.7,28.6 250.9,28.6 250.9,32.7 255.7,32.7 "/>
<polygon class="st0" points="244.7,4 240,8.1 250.8,8.1 250.7,4 "/>
<polygon class="st0" points="255.7,4 250.7,4 250.8,8.1 255.7,8.1 "/>
<polygon class="st0" points="238.2,8.1 240,8.1 244.7,4 233.9,4 233.9,13.4 238.2,9.6 "/>
<polygon class="st0" points="241.2,17.1 241.2,21.2 250.9,21.2 250.8,17.1 "/>
<polygon class="st0" points="250.8,17.1 250.9,21.2 253.8,21.2 255.4,19.4 255.4,17.1 "/>
<polygon class="st0" points="255.4,19.4 253.8,21.2 255.4,21.2 "/>
<path class="st0" d="M296.1,5.1c-1.8-0.8-3.7-1.1-5.7-1.1h-3.5l1.6,4.2h2c1.4,0,2.7,0.3,3.9,0.9c0.2,0.1,0.3,0.2,0.5,0.3l2.7-3.4
	C297.1,5.6,296.6,5.3,296.1,5.1z"/>
<polygon class="st0" points="282.7,8.2 288.4,8.2 286.9,4 278.4,4 278.4,16.4 282.7,23 "/>
<polygon class="st0" points="278.4,16.4 278.4,30.3 282.7,24.8 282.7,23 "/>
<polygon class="st0" points="282.7,28.6 282.7,24.8 278.4,30.3 278.4,32.7 289.1,32.7 286.4,28.6 "/>
<path class="st0" d="M295.8,31.6c0.4-0.2,0.8-0.4,1.2-0.6l-1.5-4c-0.4,0.3-0.9,0.5-1.3,0.7c-1.2,0.5-2.5,0.8-3.8,0.8h-4.1l2.7,4.1
	h1.4C292.3,32.7,294.1,32.3,295.8,31.6z"/>
<path class="st0" d="M300.7,8.2c-0.9-0.9-2-1.7-3.1-2.4l-2.7,3.4c1,0.5,2,1.2,2.8,2c0.9,0.9,1.7,2,2.2,3.3c0.6,1.2,0.8,2.6,0.8,3.9
	s-0.3,2.6-0.9,3.9c-0.6,1.2-1.4,2.3-2.3,3.2c-0.6,0.6-1.3,1.1-2,1.5l1.5,4c1.3-0.7,2.4-1.5,3.5-2.5c1.3-1.3,2.4-2.8,3.3-4.5
	c0.8-1.7,1.2-3.6,1.2-5.6s-0.4-3.9-1.1-5.6C303.1,11.1,302,9.6,300.7,8.2z"/>
<polygon class="st0" points="317.1,28.6 314.3,32.7 316.1,32.7 319.4,28.6 "/>
<polygon class="st0" points="325.4,28.6 319.4,28.6 316.1,32.7 327.9,32.7 "/>
<polygon class="st0" points="305.3,32.7 310.3,32.7 312,29.2 312.4,18.5 "/>
<polygon class="st0" points="315.5,12.5 312.4,18.5 312,29.2 318.2,16.8 "/>
<polygon class="st0" points="320.9,1.7 315.5,12.5 318.2,16.8 320.9,11.3 322.7,15 325.2,10.3 "/>
<polygon class="st0" points="322.7,15 325.6,20.8 328.6,17 325.2,10.3 "/>
<polygon class="st0" points="328.6,17 325.6,20.8 329.3,28.6 325.4,28.6 327.9,32.7 331.7,32.7 331.7,23.2 "/>
<polygon class="st0" points="331.7,32.7 336.4,32.7 331.7,23.2 "/>
<polygon class="st0" points="340.7,32.7 345,32.7 345,28.1 340.7,19.6 "/>
<polygon class="st0" points="346.8,4 340.7,4 340.7,8.8 350.1,8.8 "/>
<polygon class="st0" points="340.7,8.8 340.7,19.6 345,28.1 345,9.3 354.1,22.1 354.1,14.5 350.1,8.8 "/>
<polygon class="st0" points="363.1,4 363.1,13 365.7,15.8 367,4 "/>
<polygon class="st0" points="365.7,15.8 367.5,17.6 367.5,4 367,4 "/>
<polygon class="st0" points="363.1,13 363.1,27.3 354.1,14.5 354.1,22.1 361.6,32.7 363.9,32.7 365.7,15.8 "/>
<polygon class="st0" points="363.9,32.7 367.5,32.7 367.5,17.6 365.7,15.8 "/>
<polygon class="st0" points="397.8,8.1 397.8,4 391.6,4 394.6,8.1 "/>
<path class="st0" d="M377.9,19.8c1,0.4,2,0.6,3.1,0.6v-4.1c-1.2-0.2-2.1-0.7-2.7-1.4c-0.1-0.1-0.2-0.3-0.3-0.4l-1.3,4.6
	C377.1,19.4,377.5,19.6,377.9,19.8z"/>
<path class="st0" d="M380.4,4c-1,0-2,0.2-2.9,0.6s-1.7,1-2.3,1.7c-0.7,0.7-1.2,1.6-1.6,2.6S373,11,373,12.3c0,1.1,0.2,2.2,0.6,3.2
	s1,1.9,1.7,2.6c0.4,0.4,0.8,0.8,1.3,1.1l1.3-4.6c-0.4-0.6-0.5-1.4-0.5-2.2c0-1.2,0.3-2.2,1-3c0.3-0.4,0.8-0.7,1.3-0.9L381,4H380.4z"
	/>
<path class="st0" d="M381,4l-1.3,4.4c0.5-0.2,1.1-0.3,1.8-0.3h3.5V4H381z"/>
<polygon class="st0" points="391.6,4 385.1,4 385.1,8.1 394.6,8.1 "/>
<polygon class="st0" points="389,28.6 378.6,28.6 379.1,32.7 388.7,32.7 391.1,31.2 "/>
<path class="st0" d="M388.7,32.7h2.1c0.5,0,0.9,0,1.4-0.1l-1.2-1.4L388.7,32.7z"/>
<path class="st0" d="M395.9,18.7c-0.7-0.8-1.6-1.3-2.5-1.8c-1-0.4-2-0.6-3.1-0.6v4.1c1.2,0.2,2.1,0.7,2.7,1.4
	c0.2,0.3,0.4,0.6,0.5,0.9L397,20C396.7,19.6,396.3,19.1,395.9,18.7z"/>
<path class="st0" d="M397,20l-3.5,2.7c0.2,0.5,0.3,1.1,0.3,1.7c0,1.2-0.3,2.2-1,3s-1.7,1.2-3.1,1.2H389l2.1,2.6l7-4.6
	c0.1-0.7,0.2-1.3,0.2-2.1c0-1.1-0.2-2.2-0.6-3.2C397.5,20.9,397.2,20.4,397,20z"/>
<path class="st0" d="M391.1,31.2l1.2,1.4c0.5-0.1,1-0.3,1.5-0.5c0.9-0.4,1.7-1,2.3-1.7c0.7-0.7,1.2-1.6,1.6-2.6
	c0.2-0.4,0.3-0.8,0.4-1.3L391.1,31.2z"/>
<polygon class="st0" points="373.5,28.6 373.5,32.7 379.1,32.7 378.6,28.6 "/>
<polygon class="st0" points="420.6,24 420.6,32.7 425.1,32.7 425.1,29.7 "/>
<polygon class="st0" points="425.1,14.6 420.6,13.8 420.6,24 425.1,29.7 "/>
<polygon class="st0" points="427,4 420.6,4 420.6,6.3 428.2,6.4 "/>
<polygon class="st0" points="420.6,6.3 420.6,13.8 425.1,14.6 425.1,9.9 427.7,15.2 432.9,16.2 432.9,16 428.2,6.4 "/>
<polygon class="st0" points="432.9,16 432.9,16.2 433,16.2 "/>
<polygon class="st0" points="427.7,15.2 431.3,22.4 432.9,16.2 "/>
<polygon class="st0" points="444.6,18.5 441.4,17.9 437.6,25.5 433,16.2 432.9,16.2 431.3,22.4 434.7,29.1 "/>
<polygon class="st0" points="444.6,18.5 434.7,29.1 437.6,35 445.8,18.8 "/>
<polygon class="st0" points="450.4,32.7 454.8,32.7 454.8,20.5 450.4,19.7 "/>
<polygon class="st0" points="445.8,18.8 447.5,15.4 444.6,18.5 "/>
<polygon class="st0" points="454.8,4 448.3,4 441.4,17.9 444.6,18.5 447.5,15.4 450.4,9.7 450.4,12.3 454.8,7.6 "/>
<polygon class="st0" points="450.4,12.3 450.4,19.7 454.8,20.5 454.8,7.6 "/>
<path class="st0" d="M465.5,22.7l-4.9-1c0.1,0.2,0.1,0.5,0.2,0.7c0.4,1.3,1,2.5,1.7,3.7c0.3,0.5,0.7,1,1,1.5l2.6-3.9
	C465.9,23.3,465.7,23,465.5,22.7z"/>
<path class="st0" d="M471.2,28.1c-1-0.5-1.9-1-2.7-1.7c-0.8-0.7-1.5-1.5-2.1-2.3c-0.1-0.1-0.2-0.3-0.3-0.4l-2.6,3.9
	c0.5,0.6,1,1.1,1.5,1.7c1,0.9,2.1,1.7,3.4,2.4L471.2,28.1z"/>
<path class="st0" d="M486.4,26.8l-4.9-1c-0.2,0.1-0.3,0.3-0.5,0.4c-0.8,0.7-1.7,1.3-2.7,1.7l2.3,3.5c1.3-0.6,2.5-1.4,3.5-2.3
	C485.1,28.5,485.8,27.7,486.4,26.8z"/>
<path class="st0" d="M464.5,18.4c0-1.4,0.3-2.7,0.8-3.9c0.6-1.2,1.3-2.3,2.2-3.3c0.9-1,2-1.7,3.3-2.3s2.6-0.8,4-0.8
	c0.5,0,0.9,0,1.4,0.1l2.5-3.8c-1.3-0.4-2.6-0.6-4-0.6c-2.1,0-4,0.4-5.8,1.1c-1.8,0.8-3.3,1.8-4.6,3.1c-1.3,1.3-2.3,2.8-3.1,4.6
	c-0.8,1.8-1.1,3.6-1.1,5.6c0,1.1,0.1,2.2,0.4,3.3l4.9,1c-0.2-0.4-0.4-0.9-0.5-1.3C464.6,20.4,464.5,19.4,464.5,18.4z"/>
<path class="st0" d="M485.1,8.2c-1.3-1.3-2.8-2.3-4.6-3.1c-0.6-0.2-1.1-0.4-1.7-0.6l-2.5,3.8c0.9,0.1,1.7,0.4,2.5,0.7
	c1.2,0.6,2.3,1.3,3.3,2.3c0.5,0.5,1,1.1,1.4,1.7l2.6-3.8C485.7,8.8,485.4,8.5,485.1,8.2z"/>
<path class="st0" d="M487,26.1c0.8-1.1,1.4-2.4,1.8-3.7c0.4-1.3,0.6-2.7,0.6-4c0-2-0.4-3.9-1.1-5.6c-0.6-1.4-1.3-2.6-2.2-3.6
	l-2.6,3.8c0.3,0.5,0.6,1,0.9,1.6c0.6,1.2,0.8,2.5,0.8,3.9c0,1-0.2,1.9-0.5,2.9s-0.8,1.8-1.4,2.7c-0.5,0.7-1,1.3-1.7,1.8l4.9,1
	C486.6,26.6,486.8,26.4,487,26.1z"/>
<polygon class="st0" points="504.7,17.2 508.2,14.7 500.8,4 500.7,4 502,13.4 "/>
<polygon class="st0" points="508.2,14.7 504.7,17.2 507.5,21.3 510.9,18.5 "/>
<polygon class="st0" points="521.5,13 520,12.8 521.5,14.9 "/>
<polygon class="st0" points="521.5,4 517.1,4 517.1,8.7 520,12.8 521.5,13 "/>
<polygon class="st0" points="516.1,26 510.9,18.5 507.5,21.3 513.6,29.8 "/>
<polygon class="st0" points="521.5,18.2 517.1,24.7 517.1,27.3 516.1,26 513.6,29.8 515.6,32.7 517.3,32.7 521.5,28.9 "/>
<polygon class="st0" points="521.5,28.9 517.3,32.7 521.5,32.7 "/>
<polygon class="st0" points="517.1,8.7 517.1,12.5 520,12.8 "/>
<polygon class="st0" points="517.1,12.5 517.1,24.7 521.5,18.2 521.5,14.9 520,12.8 "/>
<polygon class="st0" points="499,9.3 502,13.4 500.7,4 494.7,4 494.7,24.5 499,21.4 "/>
<polygon class="st0" points="499,21.4 494.7,24.5 494.7,31.8 499,28.3 "/>
<polygon class="st0" points="494.7,31.8 494.7,32.7 499,32.7 499,28.3 "/>
<polygon class="st0" points="548.4,10.3 547.2,11.7 548.4,12.8 "/>
<polygon class="st0" points="560.4,28.6 554.3,28.6 556.9,31.5 "/>
<polygon class="st0" points="548.4,28.6 548.4,25.3 544.1,25.7 544.1,32.7 546.6,32.7 550.2,28.6 "/>
<polygon class="st0" points="556.9,31.5 554.3,28.6 550.2,28.6 546.6,32.7 555.4,32.7 "/>
<polygon class="st0" points="548.4,12.8 547.2,11.7 544.1,15.4 544.1,21.1 548.4,22 "/>
<polygon class="st0" points="544.1,21.1 544.1,25.7 548.4,25.3 548.4,22 "/>
<polygon class="st0" points="555.4,32.7 557.9,32.7 556.9,31.5 "/>
<polygon class="st0" points="560.4,28.6 556.9,31.5 557.9,32.7 563.6,32.7 563.4,28.6 "/>
<polygon class="st0" points="566,28.6 563.4,28.6 563.6,32.7 566,32.7 "/>
<polygon class="st0" points="553.7,4 550.3,8.1 556.4,8.1 555,4 "/>
<polygon class="st0" points="555,4 556.4,8.1 562.6,8.1 562.2,4 "/>
<polygon class="st0" points="566,4 562.2,4 562.6,8.1 566,8.1 "/>
<polygon class="st0" points="551.4,17.1 551.4,21.2 558.1,21.2 553.4,17.1 "/>
<polygon class="st0" points="553.4,17.1 558.1,21.2 561.1,21.2 559.7,17.1 "/>
<polygon class="st0" points="565.6,17.1 559.7,17.1 561.1,21.2 565.6,21.2 "/>
<polygon class="st0" points="544.1,9 547.2,11.7 548.4,10.3 548.4,8.1 550.3,8.1 553.7,4 544.1,4 "/>
<polygon class="st0" points="547.2,11.7 544.1,9 544.1,15.4 "/>
<polygon class="st0" points="592.9,4 589.9,4 589.2,8.1 594.2,8.1 "/>
<polygon class="st0" points="585.8,4 584.6,8.1 589.2,8.1 589.9,4 "/>
<path class="st0" d="M573.7,6.3c-0.7,0.7-1.2,1.6-1.6,2.6c-0.4,1-0.6,2.1-0.6,3.4c0,1.1,0.2,2.2,0.6,3.2c0.4,0.9,0.9,1.7,1.5,2.4
	l3.2-2.8l-0.1-0.1c-0.6-0.7-0.8-1.6-0.8-2.7c0-1.2,0.3-2.2,1-3c0,0,0.1,0,0.1-0.1l-2.8-3.5C574.1,5.9,573.9,6.1,573.7,6.3z"/>
<path class="st0" d="M578.9,4c-1,0-2,0.2-2.9,0.6c-0.6,0.3-1.2,0.6-1.7,1.1l2.8,3.5c0.7-0.7,1.7-1.1,3-1.1h4.6l1.2-4.1
	C585.9,4,578.9,4,578.9,4z"/>
<path class="st0" d="M573.8,18c0.7,0.8,1.6,1.3,2.5,1.8c1,0.4,2,0.6,3.1,0.6v-4.1c-1.2-0.2-2-0.7-2.6-1.3l-3.2,2.8
	C573.7,17.9,573.8,17.9,573.8,18z"/>
<polygon class="st0" points="596.3,8.1 596.3,4 592.9,4 594.2,8.1 "/>
<polygon class="st0" points="572,28.6 572,32.7 578.9,32.7 578.1,28.6 "/>
<polygon class="st0" points="578.9,32.7 584.9,32.7 585.6,28.6 578.1,28.6 "/>
<path class="st0" d="M594.4,18.7c-0.7-0.8-1.6-1.3-2.5-1.8c-1-0.4-2-0.6-3.1-0.6v4.1c1.2,0.2,2.1,0.7,2.7,1.4
	c0.1,0.1,0.1,0.2,0.1,0.2l3.4-2.6C594.8,19.2,594.6,18.9,594.4,18.7z"/>
<path class="st0" d="M595,19.4l-3.4,2.6c0.4,0.7,0.7,1.5,0.7,2.4c0,1.2-0.3,2.2-1,3c-0.2,0.2-0.4,0.4-0.7,0.6l4.1,2.2
	c0.6-0.7,1-1.4,1.4-2.4s0.6-2.1,0.6-3.4c0-1.1-0.2-2.2-0.6-3.2C595.8,20.6,595.4,20,595,19.4z"/>
<path class="st0" d="M590.6,28c-0.6,0.4-1.4,0.6-2.4,0.6h-2.6l-0.7,4.1h4.5c1,0,2-0.2,2.9-0.6c0.9-0.4,1.7-1,2.3-1.7
	c0.1-0.1,0.1-0.2,0.2-0.2L590.6,28z"/>
<polygon class="st0" points="602.3,4 602.3,10.8 606.8,4 "/>
<polygon class="st0" points="606.7,12.8 602.3,15.9 602.3,20.2 606.7,21.3 "/>
<polygon class="st0" points="606.7,21.3 602.3,20.2 602.3,30.2 605,28.6 606.7,23.7 "/>
<polygon class="st0" points="606.7,23.7 605,28.6 606.7,27.6 "/>
<polygon class="st0" points="602.3,30.2 602.3,32.7 603.6,32.7 605,28.6 "/>
<polygon class="st0" points="603.6,32.7 606.7,32.7 606.7,27.6 605,28.6 "/>
<path class="st0" d="M627.6,12.7c0-1.2-0.2-2.4-0.6-3.5c-0.4-1.1-0.9-2-1.6-2.8c-0.7-0.8-1.5-1.4-2.3-1.8c-0.9-0.4-1.8-0.7-2.9-0.7
	h-0.9l8.1,10.2C627.6,13.7,627.6,13.2,627.6,12.7z"/>
<path class="st0" d="M625.4,18.6c0.7-0.8,1.2-1.7,1.6-2.7c0.2-0.6,0.4-1.1,0.5-1.7L619.3,4h-5.7l-0.8,4.1h6.7c0.6,0,1,0.1,1.5,0.4
	c0.4,0.3,0.8,0.7,1.1,1.1c0.3,0.5,0.5,1,0.7,1.5s0.3,1.1,0.3,1.5c0,0.5-0.1,1-0.2,1.5c-0.1,0.5-0.3,1-0.6,1.4s-0.6,0.8-1.1,1.1
	c-0.4,0.3-0.9,0.4-1.5,0.4H615v4.1h5.2c1,0,2-0.2,2.8-0.7S624.8,19.4,625.4,18.6z"/>
<polygon class="st0" points="602.3,10.8 602.3,15.9 606.7,12.8 606.7,8.1 612.8,8.1 613.6,4 606.8,4 "/>
<polygon class="st0" points="638.1,28.6 635.3,32.7 642.2,32.7 638.9,28.6 "/>
<polygon class="st0" points="638.9,7.6 632.4,20.4 633.2,21.4 640.2,14.5 640.3,14.4 "/>
<polygon class="st0" points="641.9,1.7 638.9,7.6 640.3,14.4 641.9,11.3 642.4,12.4 645.7,9.3 "/>
<polygon class="st0" points="635.4,24.2 640.2,14.5 633.2,21.4 "/>
<polygon class="st0" points="645.7,9.3 642.4,12.4 648.5,24.9 649.8,17.6 "/>
<polygon class="st0" points="643.4,28.6 644.3,32.7 647.1,32.7 647.8,28.6 "/>
<polygon class="st0" points="648.5,24.9 650.3,28.6 647.8,28.6 647.1,32.7 657.3,32.7 649.8,17.6 "/>
<polygon class="st0" points="638.9,28.6 642.2,32.7 644.3,32.7 643.4,28.6 "/>
<polygon class="st0" points="632.4,20.4 630.8,23.7 633.2,21.4 "/>
<polygon class="st0" points="630.8,23.7 626.3,32.7 631.2,32.7 635.4,24.2 633.2,21.4 "/>
<path class="st0" d="M675.2,4.2l-2,4c0.7,0.1,1.5,0.2,2.2,0.5c0.3,0.1,0.5,0.2,0.7,0.3l-0.6-4.8C675.4,4.2,675.3,4.2,675.2,4.2z"/>
<path class="st0" d="M672.3,3.9c-2,0-3.9,0.4-5.7,1.1c-1.7,0.7-3.2,1.7-4.5,3l1.9,4.5c0.3-0.4,0.7-0.9,1.1-1.3c0.9-1,2-1.7,3.3-2.3
	s2.6-0.8,4-0.8c0.3,0,0.6,0,0.9,0l2-4C674.3,4,673.3,3.9,672.3,3.9z"/>
<path class="st0" d="M683.4,9.2c-0.9-1.1-2-2.1-3.1-2.9c-1.2-0.8-2.4-1.4-3.7-1.9c-0.3-0.1-0.7-0.2-1-0.3l0.6,4.8
	c0.7,0.3,1.4,0.7,2,1.1c0.9,0.6,1.6,1.4,2.3,2.3s1.3,1.8,1.7,2.8l3.5-2.3C685.1,11.6,684.4,10.3,683.4,9.2z"/>
<path class="st0" d="M662.8,14.5c0.3-0.7,0.7-1.4,1.2-2L662.1,8L662,8.1c-1.3,1.3-2.4,2.8-3.1,4.6c-0.4,0.9-0.7,1.9-0.9,2.9h4.4
	C662.5,15.2,662.7,14.9,662.8,14.5z"/>
<path class="st0" d="M662,18.4c0-1,0.1-1.9,0.4-2.8H658c-0.2,0.9-0.3,1.8-0.3,2.7c0,2,0.4,3.9,1.1,5.6c0.8,1.8,1.8,3.3,3.1,4.6
	c0.3,0.3,0.6,0.6,0.9,0.8l2-4.1c-0.8-0.9-1.5-1.9-2-3C662.3,21.1,662,19.8,662,18.4z"/>
<path class="st0" d="M668.3,27.7c-1.2-0.6-2.3-1.3-3.3-2.2c-0.1-0.1-0.1-0.1-0.2-0.2l-2,4.1c1.1,0.9,2.3,1.7,3.7,2.3
	c1.8,0.8,3.7,1.2,5.7,1.2c0.1,0,0.1,0,0.2,0l-1.9-4.4C669.9,28.3,669.1,28.1,668.3,27.7z"/>
<path class="st0" d="M677.7,26.9c-0.8,0.5-1.7,1-2.6,1.2c-0.9,0.3-1.9,0.4-2.8,0.4c-0.6,0-1.1-0.1-1.6-0.1l1.9,4.4
	c2.3,0,4.5-0.6,6.4-1.6l-0.6-4.8C678.1,26.6,677.9,26.7,677.7,26.9z"/>
<path class="st0" d="M681.8,22.5c-0.5,0.9-1.1,1.7-1.8,2.5c-0.5,0.6-1.1,1-1.7,1.5l0.6,4.8c0.2-0.1,0.5-0.2,0.7-0.4
	c2.2-1.3,4-3.1,5.3-5.2L681.8,22.5z"/>
<polygon class="st0" points="702.1,17.1 703.3,19.3 703.1,17.1 "/>
<polygon class="st0" points="705.9,17.1 703.1,17.1 703.3,19.3 703.9,20.4 "/>
<polygon class="st0" points="705.9,17.1 703.9,20.4 704.3,21.2 712.7,21.2 712.7,17.1 "/>
<polygon class="st0" points="701.9,4 702.3,8.1 711.2,8.1 713,5.1 713,4 "/>
<polygon class="st0" points="702.3,8.1 701.9,4 695.2,4 697.4,8.1 "/>
<polygon class="st0" points="713,5.1 711.2,8.1 713,8.1 "/>
<polygon class="st0" points="703.9,20.4 703.3,19.3 703.5,21.1 "/>
<polygon class="st0" points="703.3,19.3 702.1,17.1 698.4,17.1 698.4,21.2 703.5,21.2 703.5,21.1 "/>
<path class="st0" d="M703.5,21.2v-0.1V21.2z"/>
<polygon class="st0" points="704.3,21.2 703.9,20.4 703.5,21.1 703.5,21.2 "/>
<polygon class="st0" points="695.4,8.1 697.4,8.1 695.2,4 691.1,4 691.1,8.5 695.4,11.8 "/>
<polygon class="st0" points="691.1,8.5 691.1,15.1 695.4,21.6 695.4,11.8 "/>
<polygon class="st0" points="695.4,28.6 695.4,21.6 691.1,15.1 691.1,32.7 696.6,32.7 699,28.6 "/>
<polygon class="st0" points="699,28.6 696.6,32.7 704.5,32.7 704.1,28.6 "/>
<polygon class="st0" points="708.2,28.6 704.1,28.6 704.5,32.7 710.4,32.7 "/>
<polygon class="st0" points="710.4,32.7 713,32.7 713,28.6 708.2,28.6 "/>
<path class="st1" d="M98.7,65.4h5.3c0.9,0,1.6-0.1,2.3-0.2l-1.9-1.3c-0.1,0-0.3,0-0.4,0h-5l0.7-3.2l-1.5-1l-2.7,12.5h1.7L98.7,65.4z
	"/>
<path class="st1" d="M100.4,57.4h4.5c2.4,0,3.8,1,3.8,3c0,2.7-2.1,3.5-4.4,3.6l1.9,1.3c2.8-0.6,4.4-2.2,4.4-4.9c0-3-2.3-4.4-5.2-4.4
	H99l-0.8,3.8l1.5,1L100.4,57.4z"/>
<path class="st1" d="M117,72.5c0.1,0,0.1,0,0.2,0c4.5,0,6.6-3.4,6.6-6.8c0-2.8-1.7-5.4-5.2-5.4c-4.2,0-6.6,3.4-6.6,6.9
	c0,0.8,0.1,1.4,0.3,2.1L117,72.5z M118.3,61.8c2.5,0,3.7,1.8,3.7,4c0,2.6-1.4,5.3-4.7,5.3c-2.2,0-3.7-1.6-3.7-4
	C113.6,64.3,115.4,61.8,118.3,61.8z"/>
<path class="st1" d="M117,72.5l-4.8-3.3C112.9,71.2,114.6,72.5,117,72.5z"/>
<path class="st1" d="M129.5,72.6c2.7,0,3.7-1.1,4.5-2.5c-0.2,0.8-0.4,1.8-0.4,2.2h1.6c0.2-1,0.4-2.1,0.6-3.1l1.8-8.5H136l-1,4.9
	c-0.8,3.7-2.4,5.5-5,5.5c-2.4,0-2.5-1.9-2.1-3.8l1.4-6.7h-1.7l-1.5,7C125.4,71,127,72.6,129.5,72.6z"/>
<path class="st1" d="M141.8,67.3c0.7-3.2,2.4-5.1,5.2-5.2l0.4-1.7c-1.9,0-3.7,0.9-4.8,3c0.3-1.1,0.5-2.4,0.5-2.8h-1.6
	c-0.2,1-0.4,2.3-0.7,3.4l-1.7,8.2h1.7L141.8,67.3z"/>
<path class="st1" d="M159.4,72.6c2.3,0,3.5-0.9,4.4-2.1c-0.2,0.8-0.3,1.4-0.3,1.8h1.6c0.2-1.1,0.5-2.2,0.7-3.3l3-14H167l-1.6,7.8
	c-0.3-0.9-1.5-2.3-4.3-2.3c-4,0-6.6,3.4-6.6,7C154.6,70.4,156.3,72.6,159.4,72.6z M161.1,61.8c2.9,0,4.2,1.7,3.5,5
	c-0.5,2.4-2,4.3-4.8,4.3c-2.3,0-3.5-1.5-3.5-3.9C156.3,64.4,158.1,61.8,161.1,61.8z"/>
<polygon class="st1" points="181.1,54.6 178.9,54.6 174.8,58.5 176.7,58.5 "/>
<path class="st1" d="M174.2,72.6c3.3,0,4.8-1.6,5.7-3.5h-1.7c-0.9,1.4-2,2.1-3.8,2.1c-2.1,0-3.5-1.3-3.5-3.8c0-0.2,0-0.4,0-0.5h9.7
	c0.1-0.6,0.2-1.1,0.2-1.6c0-2.6-1.5-4.9-4.9-4.9c-4.2,0-6.6,3.4-6.6,7C169.2,70.5,171,72.6,174.2,72.6z M175.6,61.7
	c2.6,0,3.5,1.6,3.5,3.3c0,0.2,0,0.4,0,0.5h-8C171.7,63.1,173.4,61.7,175.6,61.7z"/>
<path class="st1" d="M187.9,72.6c3.6,0,5.1-2,5.9-4h-1.7c-0.8,1.5-1.9,2.5-4,2.5c-2.4,0-3.5-1.6-3.5-3.8c0-2.8,1.7-5.6,4.7-5.6
	c2.4,0,3.3,1.4,3.4,2.7h1.6c0-1.6-1.1-4.1-4.9-4.1c-4.1,0-6.5,3.5-6.5,7.1C182.9,70.2,184.4,72.6,187.9,72.6z"/>
<path class="st1" d="M207.9,65.7c0-2.8-1.7-5.4-5.2-5.4c-4.2,0-6.6,3.4-6.6,6.9c0,3.1,2,5.3,5.2,5.3c0.1,0,0.2,0,0.3,0L204,72
	C206.7,71,207.9,68.4,207.9,65.7z M197.8,67.1c0-2.8,1.8-5.4,4.7-5.4c2.5,0,3.7,1.8,3.7,4c0,2.6-1.4,5.3-4.7,5.3
	C199.3,71.1,197.8,69.6,197.8,67.1z"/>
<path class="st1" d="M201.7,72.5c0.9,0,1.7-0.2,2.4-0.5L201.7,72.5z"/>
<path class="st1" d="M212.1,67.3l1.4-6.7h-1.7l-1.5,7c-0.3,1.3-0.2,2.3,0.1,3.1l1.9-0.4C211.8,69.6,211.8,68.5,212.1,67.3z"/>
<path class="st1" d="M217.8,69.2c-0.9,1.2-2.1,1.9-3.6,1.9c-0.9,0-1.5-0.3-1.8-0.8l-1.9,0.4c0.5,1.2,1.7,1.8,3.3,1.8
	c2.7,0,3.7-1.1,4.5-2.5c-0.2,0.8-0.4,1.8-0.4,2.2h1.6c0.2-1,0.4-2.1,0.6-3.1l0.1-0.4L217.8,69.2z"/>
<path class="st1" d="M221.9,60.7h-1.6l-1,4.9c-0.3,1.6-0.8,2.8-1.5,3.7l2.5-0.5L221.9,60.7z"/>
<path class="st1" d="M225.5,60.7h-1.7l1.7,7l1.6-0.3C226.7,65.6,226.2,63.4,225.5,60.7z"/>
<path class="st1" d="M236,60.7h-1.8c-1.7,2.6-3,4.5-3.9,6l2.1-0.4L236,60.7z"/>
<path class="st1" d="M230.3,66.6c-1.4,2.2-2.1,3.3-2.4,4l0,0c-0.1-0.6-0.4-1.7-0.7-3.3l-1.6,0.3l1.1,4.6h1.8l3.9-6L230.3,66.6z"/>
<path class="st1" d="M243.8,62.1l0.4-1.7c-1.9,0-3.7,0.9-4.8,3c0.3-1.1,0.5-2.4,0.5-2.8h-1.6c-0.2,1-0.4,2.3-0.7,3.4l-0.2,1.1
	l2.2-0.4C240.5,63.1,241.9,62.2,243.8,62.1z"/>
<path class="st1" d="M237.5,65.2l-1.5,7.1h1.7l1-4.9c0.2-1,0.5-1.9,1-2.6L237.5,65.2z"/>
<polygon class="st1" points="249.6,54.9 248,54.9 247.4,57.4 249.1,57.4 "/>
<polygon class="st1" points="246.2,63.4 244.3,72.2 245.9,72.2 247.9,63 "/>
<polygon class="st1" points="248.4,60.7 246.8,60.7 246.2,63.4 247.9,63 "/>
<path class="st1" d="M253.7,60.7h-1.6c-0.1,0.5-0.2,1-0.3,1.5l1.7-0.3C253.7,61.3,253.7,60.8,253.7,60.7z"/>
<path class="st1" d="M254.7,61.6c-0.6,0.5-1.1,1.1-1.5,1.8c0.1-0.5,0.2-1.1,0.3-1.6l-1.7,0.3c-0.1,0.6-0.3,1.3-0.4,1.9l-1.7,8.2h1.7
	l1-4.9c0.7-3.2,2.4-5.1,5.2-5.2l0.3-1.2L254.7,61.6z"/>
<path class="st1" d="M258,60.4c-1.2,0-2.4,0.4-3.3,1.2l3.2-0.7L258,60.4z"/>
<path class="st1" d="M268.6,62.7c0.1-0.6,0.4-1.8,0.4-2h-1.6c-0.2,1.1-0.4,2.1-0.6,3.2l-1.8,8.3h1.6l1.2-5.9
	c0.4-1.9,1.4-3.7,3.1-4.2l-0.6-1.1C269.6,61.4,269,62.1,268.6,62.7z"/>
<polygon class="st1" points="272.6,72.2 274.2,72.2 274.8,69.5 273.6,67.2 "/>
<path class="st1" d="M280.2,60.3c-2.3,0-3.6,1.2-4.4,2.4c-0.2-1.4-1.2-2.4-3.1-2.4c-1,0-1.8,0.2-2.4,0.6l0.6,1.1
	c0.4-0.1,0.8-0.2,1.2-0.2c2.3,0,2.3,1.9,2,3.3l-0.4,2.1l1.2,2.2l0.7-3.4c0.5-2.6,2.1-4.2,4.1-4.2c2.4,0,2.4,1.9,2,3.3l-1.5,7.1h1.6
	l1.5-7.2C284,61.7,282.4,60.3,280.2,60.3z"/>
<path class="st1" d="M297.3,66.8c0-0.2,0.1-0.4,0.1-0.6l-1.5-0.9c0,0.1,0,0.2,0,0.2h-8c0.4-1.7,1.4-2.9,2.8-3.4l-1.4-0.9
	c-2.1,1.2-3.3,3.7-3.3,6.2c0,3.2,1.8,5.2,5,5.2c3.3,0,4.8-1.6,5.7-3.5H295c-0.9,1.4-2,2.1-3.8,2.1c-2.1,0-3.5-1.3-3.5-3.8
	c0-0.2,0-0.4,0-0.5L297.3,66.8L297.3,66.8z"/>
<path class="st1" d="M292.4,61.7c2.6,0,3.5,1.6,3.5,3.3c0,0.1,0,0.2,0,0.2l1.5,0.9c0.1-0.3,0.1-0.7,0.1-1c0-2.6-1.5-4.9-4.9-4.9
	c-1.3,0-2.4,0.3-3.3,0.9l1.4,0.9C291.2,61.9,291.8,61.7,292.4,61.7z"/>
<path class="st1" d="M309.4,68.9c0-1.7-1-2.7-4.2-3.4c-2.2-0.5-3.1-1-3.1-1.9c0-1.1,1-1.9,2.7-1.9c2.5,0,3.2,1.3,3.4,2.3h1.7
	c0-1-0.6-3.6-4.9-3.6c-2.8,0-4.6,1.3-4.6,3.4c0,1.5,0.8,2.4,4,3.1c2.5,0.5,3.2,1.2,3.2,2.3c0,1.1-0.9,1.8-2.2,2l1.6,1
	C308.6,71.5,309.4,70.3,309.4,68.9z"/>
<path class="st1" d="M305.4,71.1c-0.3,0.1-0.6,0.1-1,0.1c-1.9,0-3.5-0.6-3.7-2.6h-1.6c0.1,2.6,2.1,4,5.2,4c1.1,0,2-0.2,2.8-0.5
	L305.4,71.1z"/>
<path class="st1" d="M326.4,61.8c2.2,0,3.3,1.5,3.3,3.6c0,1.8-0.7,3.7-2.1,4.8l1.1,1.1c1.7-1.4,2.6-3.7,2.6-5.9c0-2.8-1.5-5-4.5-5
	c-2.5,0-3.9,1.2-4.8,2.5c0.2-1,0.4-1.9,0.4-2.2h-1.6c-0.1,0.6-0.2,1.4-0.5,2.6l1.5,1.4C322.8,63,324.4,61.8,326.4,61.8z"/>
<path class="st1" d="M327.6,70.2c-0.7,0.6-1.7,1-2.8,1c-2.7,0-4-1.9-3.5-4.8c0.1-0.6,0.3-1.1,0.5-1.6l-1.5-1.4
	c0,0.2-0.1,0.5-0.1,0.7l-2.9,13.3h1.6l1.5-7.3c0.4,1.1,1.5,2.5,4.2,2.5c1.6,0,2.9-0.5,3.9-1.3L327.6,70.2z"/>
<path class="st1" d="M336.5,63.4c0.3-1.1,0.5-2.4,0.5-2.8h-1.6c-0.2,1-0.4,2.3-0.7,3.4l-1.7,8.2h1.7l1-4.9c0.7-3.2,2.4-5.1,5.2-5.2
	l0.4-1.7C339.3,60.4,337.6,61.4,336.5,63.4z"/>
<path class="st1" d="M343.4,67.1c0-2.3,1.2-4.5,3.3-5.1l0.4-1.5c-3.4,0.6-5.3,3.6-5.3,6.8c0,2.2,1,3.9,2.6,4.7l0.4-1.7
	C343.9,69.6,343.4,68.5,343.4,67.1z"/>
<path class="st1" d="M348.3,60.3c-0.4,0-0.8,0-1.2,0.1l-0.4,1.5c0.4-0.1,0.9-0.2,1.4-0.2c2.5,0,3.7,1.8,3.7,4c0,2.6-1.4,5.3-4.7,5.3
	c-1,0-1.8-0.3-2.4-0.8l-0.4,1.7c0.7,0.4,1.6,0.6,2.6,0.6c1.5,0,2.7-0.4,3.7-1l2.5-7.9C352.5,61.8,350.9,60.3,348.3,60.3z"/>
<path class="st1" d="M350.7,71.5c1.9-1.3,2.8-3.5,2.8-5.8c0-0.7-0.1-1.5-0.4-2.1L350.7,71.5z"/>
<polygon class="st1" points="359.6,60.7 358,60.7 357.9,60.7 359.2,62.4 "/>
<path class="st1" d="M357.9,60.7l-2.8,12.9c-0.5,2.3-1.1,2.7-2.4,2.7c-0.1,0-0.3,0-0.4,0l-0.3,1.4c0.3,0,0.5,0,0.9,0
	c3,0,3.5-2,4-4.6l2.3-10.8L357.9,60.7z"/>
<polygon class="st1" points="360.8,54.9 359.2,54.9 358.7,57.4 360.3,57.4 "/>
<path class="st1" d="M363,66.8h9.7c0.1-0.6,0.2-1.1,0.2-1.6c0-2.6-1.5-4.9-4.9-4.9s-5.6,2.2-6.4,5l1.4,1.8C363,67,363,66.9,363,66.8
	z M367.8,61.7c2.6,0,3.5,1.6,3.5,3.3c0,0.2,0,0.4,0,0.5h-8C363.8,63.1,365.5,61.7,367.8,61.7z"/>
<path class="st1" d="M366.2,71.1c-2-0.1-3.2-1.4-3.2-3.8c0-0.1,0-0.2,0-0.3l-1.4-1.8c-0.2,0.7-0.3,1.3-0.3,2c0,3.2,1.8,5.2,5,5.2
	c0.4,0,0.7,0,1-0.1L366.2,71.1z"/>
<path class="st1" d="M372.1,69.1h-1.7c-0.9,1.4-2,2.1-3.8,2.1c-0.1,0-0.2,0-0.3,0l1.1,1.4C370,72.2,371.3,70.8,372.1,69.1z"/>
<path class="st1" d="M377.3,68.9l1.4-6.8h3l0.3-1.4h-3l0.8-3.9h-1.7l-0.8,3.9H375l-0.3,1.4h2.3l-1.5,7c-0.4,2.1,0.1,3.3,2.3,3.3
	c0.7,0,1.3-0.1,1.8-0.2l0.3-1.3c-0.3,0.1-1,0.2-1.5,0.2C377.3,70.9,377,70.3,377.3,68.9z"/>
<path class="st1" d="M390.7,69.1c0,1.4-1.4,2.1-3.2,2.1c-0.1,0-0.1,0-0.2,0l-1,1.3c0.3,0,0.6,0.1,1,0.1c3.3,0,5.2-1.6,5.2-3.7
	c0-1.1-0.4-1.9-1.5-2.5l-1,1.3C390.5,68.1,390.7,68.5,390.7,69.1z"/>
<path class="st1" d="M383.7,68.6h-1.6c0.1,2.3,1.7,3.6,4.2,3.9l1-1.3C385.5,71.2,384,70.5,383.7,68.6z"/>
<path class="st1" d="M392.9,63.9c0-0.1,0-0.1,0-0.2l-0.2,0.2H392.9z"/>
<path class="st1" d="M385.2,63.5c0-1.1,1-1.9,2.7-1.9c2.5,0,3.2,1.3,3.4,2.3h1.5l0.2-0.2c-0.1-1.1-0.9-3.4-4.9-3.4
	c-2.8,0-4.6,1.3-4.6,3.4c0,1.5,0.8,2.4,4,3.1c1.2,0.3,1.9,0.5,2.4,0.9l1-1.3c-0.6-0.4-1.5-0.7-2.7-0.9
	C386,64.9,385.2,64.5,385.2,63.5z"/>
<path class="st1" d="M393,75.1h1.5c1.1-1.3,2.6-4.1,3.2-6.3H396C395.5,70.6,394.6,72.9,393,75.1z"/>
<path class="st1" d="M413.5,61.7c2.3,0,3.3,1.2,3.5,2.7l1.7,0.6c0-2.6-1.5-4.7-4.9-4.7c-1.6,0-2.9,0.5-3.9,1.3l1.6,0.6
	C411.9,61.9,412.7,61.7,413.5,61.7z"/>
<path class="st1" d="M416.9,64.4c0,0.2,0,0.4,0,0.6s0,0.4,0,0.5h-8c0.4-1.5,1.2-2.7,2.4-3.3l-1.6-0.6c-1.7,1.3-2.7,3.5-2.7,5.7
	c0,0.2,0,0.4,0,0.6h1.7c0-0.2,0-0.4,0-0.6s0-0.4,0-0.5h9.7c0.1-0.6,0.2-1.1,0.2-1.6v-0.1L416.9,64.4z"/>
<path class="st1" d="M412.2,71.1c-2,0-3.3-1.1-3.5-3.2H407c0.2,2.8,2,4.6,5,4.6c3.3,0,4.8-1.6,5.7-3.5H416
	C415.1,70.5,414.1,71.1,412.2,71.1z"/>
<polygon class="st1" points="432.2,61.1 432.6,60.7 430.7,60.7 "/>
<path class="st1" d="M430.7,60.7h-0.1c-2.3,2.1-4,3.9-4.7,4.6l0,0c-0.4-0.6-1.3-2-3-4.6H421l3.7,5.7l-0.8,0.8l1.4,0.5
	c0.1-0.1,0.1-0.1,0.2-0.2l0,0c0,0.1,0.1,0.2,0.2,0.2h1.9l-0.9-1.3l5.5-5.3L430.7,60.7z"/>
<path class="st1" d="M423.2,67.7h2l0,0l-1.4-0.5L423.2,67.7z"/>
<path class="st1" d="M418.5,72.2h2c2.2-2.1,3.8-3.8,4.6-4.5h-2L418.5,72.2z"/>
<path class="st1" d="M425.6,67.7c0,0,0.1,0.1,0.1,0.2l2.5,1l-0.8-1.2H425.6z"/>
<path class="st1" d="M425.7,67.9c0.6,0.9,1.6,2.4,2.8,4.4h1.9l-2.2-3.4L425.7,67.9z"/>
<path class="st1" d="M437.3,72.4l-1-0.4C436.6,72.1,436.9,72.3,437.3,72.4z"/>
<path class="st1" d="M445.1,67.5h-1.7l0,0l1.4,1C444.9,68.2,445,67.8,445.1,67.5z"/>
<path class="st1" d="M443.4,67.5c-0.6,2-2.2,3.6-4.5,3.6s-3.6-1.3-3.6-3.5h-1.8l-0.6,3l1.5,0.6l0.2-1.1c0.2,0.6,0.7,1.4,1.7,1.9
	l1,0.4c0.5,0.1,1,0.2,1.6,0.2c3,0,5-1.8,5.9-4.1L443.4,67.5z"/>
<polygon class="st1" points="431.4,77.4 433.1,77.4 434.4,71.2 432.9,70.6 "/>
<path class="st1" d="M435.2,61.9l-0.5-0.3c0,0.1,0,0.1,0,0.2L435.2,61.9z"/>
<path class="st1" d="M436.3,62.1c0.1-0.7,0.2-1.3,0.3-1.5H435c0,0.2-0.1,0.5-0.1,0.9l0.5,0.3L436.3,62.1z"/>
<path class="st1" d="M436.3,62.1l-1-0.3l1,0.7C436.2,62.4,436.2,62.3,436.3,62.1z"/>
<path class="st1" d="M437.8,62.6l-1.2-0.3c-0.1,0.1-0.2,0.3-0.3,0.4l0.8,0.5C437.3,62.9,437.5,62.7,437.8,62.6z"/>
<path class="st1" d="M436.3,62.6c-0.1,0.1-0.1,0.2-0.2,0.2c0-0.1,0-0.2,0.1-0.3l-1-0.7l-0.5-0.1c-0.1,0.6-0.2,1.3-0.5,2.3l-0.8,3.6
	h1.8c0-0.4,0-0.8,0.1-1.2c0.2-1.3,0.8-2.4,1.7-3.2L436.3,62.6z"/>
<path class="st1" d="M445.1,67.5c0.2-0.7,0.3-1.4,0.3-2.2c0-0.3,0-0.5-0.1-0.8l-1.8-0.5c0.1,0.4,0.2,0.9,0.2,1.3
	c0,0.7-0.1,1.4-0.3,2.1L445.1,67.5z"/>
<path class="st1" d="M440.4,61.8c1.7,0,2.7,0.9,3.1,2.3l1.8,0.5c-0.3-2.4-1.8-4.2-4.5-4.2c-2.1,0-3.4,0.9-4.3,1.9l1.2,0.3
	C438.6,62.1,439.4,61.8,440.4,61.8z"/>
<polygon class="st1" points="448.9,71.4 447.5,70.4 447.1,72.2 448.7,72.2 "/>
<polygon class="st1" points="449.7,67.4 448.1,67.5 447.5,70.4 448.9,71.4 "/>
<polygon class="st1" points="452.4,54.9 450.7,54.9 448.5,65.4 450.1,65.8 "/>
<polygon class="st1" points="450.1,65.8 448.5,65.4 448.1,67.5 449.7,67.4 "/>
<path class="st1" d="M459.4,60.3c-3.9,0-6.3,2.9-6.5,6.2l1.7,0.4c0.1-2.7,1.8-5.2,4.7-5.2c1.9,0,3.1,1.1,3.5,2.6l1.4-1.2
	C463.4,61.5,461.8,60.3,459.4,60.3z"/>
<path class="st1" d="M462.8,64.3c0.1,0.5,0.2,0.9,0.2,1.5c0,0.5-0.1,1-0.2,1.5h1.7c0.1-0.5,0.1-1,0.1-1.5c0-0.9-0.2-1.8-0.5-2.6
	L462.8,64.3z"/>
<path class="st1" d="M454.6,67.4c0-0.1,0-0.2,0-0.3V67l-1.7-0.4c0,0.2,0,0.4,0,0.7c0,0.1,0,0.1,0,0.2L454.6,67.4z"/>
<path class="st1" d="M462.1,69l1.6,0.4c0.4-0.7,0.6-1.4,0.8-2.2h-1.7C462.7,67.9,462.4,68.5,462.1,69z"/>
<path class="st1" d="M454.6,67.4h-1.7c0,1.6,0.6,3,1.7,3.9l1.3-1.1C455.1,69.6,454.6,68.6,454.6,67.4z"/>
<path class="st1" d="M458.3,71.1c-1,0-1.8-0.3-2.5-0.9l-1.3,1.1c0.9,0.8,2.1,1.3,3.6,1.3c2.8,0,4.6-1.3,5.6-3.1l-1.6-0.4
	C461.4,70.2,460.1,71.1,458.3,71.1z"/>
<path class="st1" d="M469.8,63.4c0.3-1.1,0.5-2.4,0.5-2.8h-1.6c-0.2,1-0.4,2.3-0.7,3.4l-0.7,3.2h1.7c0.7-3.1,2.4-5,5.1-5.1l0.4-1.7
	C472.7,60.4,470.9,61.4,469.8,63.4z"/>
<path class="st1" d="M466.8,70.2l1.6,0.4l0.7-3.3v-0.1h-1.7L466.8,70.2z"/>
<polygon class="st1" points="466.3,72.2 468,72.2 468.3,70.7 466.8,70.2 "/>
<path class="st1" d="M481.7,60.3c-0.1,0-0.3,0-0.4,0l4.9,2.6C485.6,61.5,484.1,60.3,481.7,60.3z"/>
<path class="st1" d="M486.6,65.2c0-0.8-0.2-1.5-0.4-2.2l-4.9-2.6c-3.9,0.2-6.1,3.4-6.2,6.8h1.7c0-0.1,0-0.2,0-0.3h9.7
	C486.6,66.2,486.6,65.7,486.6,65.2z M485,65.5h-8c0.6-2.4,2.2-3.8,4.5-3.8c2.6,0,3.5,1.6,3.5,3.3C485,65.3,485,65.5,485,65.5z"/>
<path class="st1" d="M485.8,69.1h-1.7c-0.9,1.4-2,2.1-3.8,2.1c-2.1,0-3.5-1.3-3.5-3.8c0-0.1,0-0.1,0-0.2h-1.7c0,0.1,0,0.1,0,0.2
	c0,3.2,1.8,5.2,5,5.2C483.4,72.6,484.9,71,485.8,69.1z"/>
<polygon class="st1" points="489.8,60.7 489.5,62.1 491.8,62.1 491.6,60.7 "/>
<polygon class="st1" points="496.4,60.7 491.6,60.7 491.8,62.1 495.3,62.1 "/>
<polygon class="st1" points="492.5,66.4 492.6,66.5 492.6,66.4 "/>
<polygon class="st1" points="494.1,66.9 499.4,62 499.7,60.7 496.4,60.7 495.3,62.1 497.3,62.1 492.6,66.4 492.6,66.5 493.5,67 "/>
<polygon class="st1" points="491.9,67 492.7,67 492.6,66.5 492.5,66.4 "/>
<polygon class="st1" points="493.5,67 492.6,66.5 492.7,67 "/>
<polygon class="st1" points="487.6,71 487.4,72 489.9,68.8 "/>
<polygon class="st1" points="493.9,67.2 493.5,67 492.7,67 492.9,68.1 "/>
<polygon class="st1" points="498.5,70.9 493.4,70.9 493.6,72.2 497.9,72.2 "/>
<polygon class="st1" points="489.9,70.9 492.9,68.1 492.7,67 491.9,67 489.9,68.8 487.4,72 487.3,72.2 493.6,72.2 493.4,70.9 "/>
<polygon class="st1" points="494.1,66.9 493.5,67 493.9,67.2 "/>
<polygon class="st1" points="517.9,66.7 516.8,66.7 517.7,67.8 "/>
<polygon class="st1" points="517.7,67.8 516.8,66.7 516.3,66.7 515.1,72.2 516.8,72.2 "/>
<polygon class="st1" points="510.3,66.8 508.7,66.8 507.5,72.2 509.2,72.2 "/>
<path class="st1" d="M522.2,61.8c2.4,0,2.4,1.9,2,3.3l-0.3,1.4h1.6l0.3-1.6c0.7-3.4-0.9-4.7-3.1-4.7c-2.3,0-3.6,1.2-4.4,2.4
	c-0.2-1.4-1.2-2.4-3.1-2.4c-0.5,0-0.9,0.1-1.3,0.2l4.8,3.6C519.5,62.7,520.7,61.8,522.2,61.8z"/>
<path class="st1" d="M510.4,66.3c0.4-1.7,1.2-3.3,2.6-4.1l-0.7-0.8c-0.5,0.4-0.8,0.8-1.1,1.3c0.1-0.6,0.3-1.8,0.4-2H510
	c-0.2,1.1-0.4,2.1-0.6,3.2l-0.6,2.9h1.6L510.4,66.3z"/>
<path class="st1" d="M514.7,61.8c2.3,0,2.3,1.9,2,3.3l-0.2,1.1l0.4,0.5h1.1l0.1-0.6c0.2-0.7,0.4-1.4,0.7-1.9l-4.8-3.6
	c-0.7,0.2-1.2,0.5-1.7,0.9l0.7,0.8C513.5,62,514,61.8,514.7,61.8z"/>
<polygon class="st1" points="516.4,66.2 516.3,66.7 516.8,66.7 "/>
<polygon class="st1" points="525.6,66.6 523.9,66.6 523.6,67.9 525,68.9 525.1,68.9 "/>
<polygon class="st1" points="525.1,68.9 525,68.9 525.1,69 "/>
<polygon class="st1" points="523.6,67.9 523.2,70.2 525,68.9 "/>
<polygon class="st1" points="523.2,70.2 522.7,72.2 524.4,72.2 525.1,69 525,68.9 "/>
<path class="st1" d="M529.2,66.6h2.3l-0.2-1C530.6,65.8,529.8,66.1,529.2,66.6z"/>
<path class="st1" d="M530.7,61.8c-0.6,0.6-0.9,1.3-1,2h1.4L530.7,61.8z"/>
<path class="st1" d="M535.2,60.3c-2.3,0-3.6,0.6-4.5,1.5l0.3,2h0.3c0.4-1.4,1.4-2.1,3.6-2.1c0.1,0,0.2,0,0.3,0l1.7-1.2
	C536.5,60.4,535.9,60.3,535.2,60.3z"/>
<path class="st1" d="M537,60.5l-1.7,1.2c2.5,0.1,2.9,1.5,2.6,2.9l-0.1,0.4c-0.9,0-2.7,0-3.6,0.1c-0.7,0.1-1.8,0.2-2.8,0.4l0.2,1h1.9
	c0.2,0,0.4-0.1,0.7-0.1c0.9-0.1,2-0.1,3.5-0.1v0.1h1.6l0.4-1.7C540,62.8,539.3,61.1,537,60.5z"/>
<path class="st1" d="M531.6,66.9c0.6-0.2,1.2-0.3,1.9-0.4h-1.9V66.9z"/>
<path class="st1" d="M537.5,66.7c-0.7,2.8-2,4.4-5.1,4.4h-0.1l0.2,1.4c2.2-0.1,3.4-1,4.2-2.2c-0.1,0.7-0.3,1.5-0.3,1.9h1.6
	c0.1-0.5,0.3-1.7,0.7-3.5l0.5-2.3h-1.6L537.5,66.7z"/>
<path class="st1" d="M529.7,69.1c0-1.2,0.8-1.8,1.8-2.2l-0.1-0.4h-2.3c-0.7,0.6-1.2,1.4-1.2,2.7c0,1.5,1,3.3,4,3.3
	c0.2,0,0.4,0,0.6,0l-0.2-1.4C530.7,71.1,529.7,70.3,529.7,69.1z"/>
<path class="st1" d="M554,70.9c-2.1,0-3.3-1.4-3.3-3.6c0-0.3,0-0.7,0.1-1h-1.7c0,0.4-0.1,0.7-0.1,1.1c0,3.2,1.8,5,4.6,5
	c1.3,0,2.3-0.3,3.1-0.8l-0.1-1.3C555.8,70.7,554.9,70.9,554,70.9z"/>
<path class="st1" d="M553,76.3c-2.5,0-3.4-1.1-3.6-2.5h-1.6c0,1.2,0.5,3.9,5,3.9c2,0,3.3-0.5,4.3-1.3l-0.2-2.2
	C556.1,75.5,555,76.3,553,76.3z"/>
<path class="st1" d="M558.9,66.7c-0.3,1.5-1.1,2.9-2.4,3.6l0.1,1.3c0.7-0.4,1.1-0.9,1.5-1.5l-0.2,0.7c-0.3,1.3-0.6,2.5-1.1,3.4
	l0.2,2.2c1.4-1.2,2-3.2,2.5-5.7l1-4.6h-1.6C558.9,66.4,558.9,66.5,558.9,66.7z"/>
<path class="st1" d="M555.5,60.3c-3.6,0-6,2.8-6.4,6h1.7c0.4-2.6,2.2-4.5,4.7-4.5c0.1,0,0.2,0,0.3,0l-0.1-1.5
	C555.6,60.4,555.5,60.3,555.5,60.3z"/>
<path class="st1" d="M559.6,62.8c-0.3-1.1-1.6-2.3-4-2.4l0.1,1.5c2.7,0.1,3.6,2,3.2,4.4h1.6l0.6-2.6c0.2-1,0.5-2.1,0.7-2.9h-1.6
	C560.1,61,559.8,62,559.6,62.8z"/>
<path class="st1" d="M569.9,61.7c2.8,0,3.2,1.4,2.9,2.9l-0.1,0.4c-0.9,0-2.7,0-3.6,0.1c-0.5,0-1.1,0.1-1.8,0.2l0.4,0.8l6.5-0.1
	l0.3-1.3c0.5-2.4-0.5-4.4-4.4-4.4c-2.3,0-3.7,0.7-4.5,1.6l0.8,1.6C566.8,62.4,567.8,61.7,569.9,61.7z"/>
<path class="st1" d="M564.6,63.8h1.7c0-0.1,0.1-0.2,0.1-0.3l-0.8-1.6C565,62.5,564.7,63.2,564.6,63.8z"/>
<path class="st1" d="M564.7,66.2h3l-0.4-0.8C566.4,65.5,565.5,65.7,564.7,66.2z"/>
<path class="st1" d="M569,66.4c0.9-0.1,2-0.1,3.5-0.1l-0.1,0.3c-0.4,1.8-1.2,3.1-2.5,3.9l0.6,1.1c0.5-0.3,0.8-0.8,1.1-1.2
	c-0.1,0.7-0.3,1.5-0.3,1.9h1.6c0.1-0.5,0.3-1.7,0.7-3.5l0.6-2.7l-6.5,0.1l0.2,0.4C568.3,66.5,568.6,66.5,569,66.4z"/>
<path class="st1" d="M569.9,70.5c-0.7,0.4-1.6,0.6-2.6,0.6c-1.7,0-2.6-0.8-2.6-2c0-1.7,1.5-2.3,3.3-2.5l-0.2-0.4h-3
	c-1,0.6-1.8,1.5-1.8,3.1c0,1.5,1,3.3,4,3.3c1.6,0,2.8-0.4,3.6-1L569.9,70.5z"/>
<polygon class="st1" points="580.3,54.9 579.5,58.6 580.5,61.8 582,54.9 "/>
<polygon class="st1" points="578,66 579.6,66 580.5,61.8 579.5,58.6 "/>
<polygon class="st1" points="578,66 576.6,72.2 578.3,72.2 579.6,66 "/>
<path class="st1" d="M588.7,65.1L588.7,65.1L588.7,65.1L588.7,65.1z"/>
<path class="st1" d="M588.6,65.1c-0.2,0-0.4,0-0.5,0c-1,0.1-2.6,0.2-3.9,0.8h4.3c0.1-0.2,0.1-0.5,0.2-0.7L588.6,65.1z"/>
<path class="st1" d="M589,61.7c0.1,0,0.3,0,0.4,0c0.1-0.5,0.2-0.9,0.2-1.4c-0.2,0-0.3,0-0.5,0c-1.3,0-2.4,0.2-3.1,0.6l0.8,1.2
	C587.3,61.9,588,61.7,589,61.7z"/>
<path class="st1" d="M586,60.9c-1.4,0.6-2.1,1.8-2.3,2.9h1.7c0.2-0.8,0.7-1.4,1.4-1.7L586,60.9z"/>
<path class="st1" d="M593.3,65.8l0.2-1.1c0.5-2.3-0.4-4.2-3.9-4.4c-0.1,0.5-0.2,0.9-0.2,1.4c2.4,0.1,2.8,1.5,2.5,2.9l-0.1,0.4
	c-0.8,0-2.1,0-3,0.1v0.1l0.4,0.7L593.3,65.8z"/>
<path class="st1" d="M589.2,65.9l-0.4-0.7c-0.1,0.2-0.1,0.5-0.2,0.7H589.2z"/>
<path class="st1" d="M582,69.2c0,1.5,1,3.3,4,3.3c0.2,0,0.4,0,0.6,0c0.2-0.5,0.4-1,0.5-1.5c-0.2,0-0.5,0.1-0.7,0.1
	c-1.7,0-2.6-0.8-2.6-2c0-2,2.2-2.5,4.3-2.7c0.1,0,0.2,0,0.4,0c0-0.2,0.1-0.3,0.1-0.5h-4.3C583,66.5,582,67.5,582,69.2z"/>
<path class="st1" d="M588.6,65.9c0,0.2-0.1,0.3-0.1,0.5c0.3,0,0.7,0,1-0.1l-0.3-0.5L588.6,65.9z"/>
<path class="st1" d="M592.7,68.7l0.6-2.9h-4.1l0.3,0.5c0.6,0,1.3,0,2.1,0l-0.1,0.3c-0.2,0.7-0.4,1.3-0.6,1.8l1.4,2.3
	C592.4,70.2,592.5,69.5,592.7,68.7z"/>
<path class="st1" d="M590.8,68.5c-0.7,1.5-1.8,2.4-3.7,2.5c-0.2,0.5-0.3,1-0.5,1.5c2.2-0.1,3.4-1,4.1-2.2c-0.1,0.7-0.3,1.5-0.3,1.9
	h1.6c0-0.3,0.1-0.8,0.3-1.5L590.8,68.5z"/>
<path class="st1" d="M608,60.7h-2c-2.3,2.1-4,3.9-4.7,4.6l0,0c-0.4-0.6-1.3-2-3-4.6h-1.9l3.4,5.1h3.1L608,60.7z"/>
<path class="st1" d="M602.1,66.4l0.7-0.6h-3.1l0.4,0.6l-6.1,5.9h2c2.5-2.4,4.2-4.1,4.9-4.8l0,0c0.5,0.8,1.7,2.5,3.1,4.8h1.9
	L602.1,66.4z"/>
<path class="st1" d="M619.2,60.7c-1.1,1.9-2.1,3.5-2.9,4.9h1.8l2.9-4.9C621,60.7,619.2,60.7,619.2,60.7z"/>
<path class="st1" d="M610.6,60.7H609l1.2,5h1.7C611.5,64.2,611.1,62.6,610.6,60.7z"/>
<path class="st1" d="M608,76.1c-0.6,0-1.2-0.1-1.5-0.2l-0.3,1.5c0.4,0.1,1.2,0.2,1.7,0.2c2,0,3-0.5,4.6-2.7
	c-0.6-0.1-1.1-0.2-1.7-0.3C609.9,75.8,609.1,76.1,608,76.1z"/>
<path class="st1" d="M616.4,65.6c-0.2,0.4-0.5,0.8-0.7,1.2c0.2,0.7,0.3,1.4,0.5,2.1l2-3.3L616.4,65.6z"/>
<path class="st1" d="M613.1,71.2L613.1,71.2c-0.2-0.7-0.6-2.7-1.3-5.5h-1.7l1.8,7.3c-0.5,0.7-0.9,1.3-1.2,1.7
	c0.6,0.1,1.1,0.2,1.7,0.3c0.4-0.6,0.8-1.3,1.3-2.1l2.4-4c-0.2-0.7-0.4-1.4-0.5-2.1C614.4,69,613.5,70.5,613.1,71.2z"/>
<path class="st1" d="M619.8,72.2l0.7-3.4h1.8l-0.7,3.4H619.8z"/>
<polygon class="st1" points="81.1,99.8 82.9,99.8 83.5,97 81.7,97.3 "/>
<path class="st1" d="M89.7,91.5c-0.1,0-0.1,0-0.2,0h-4.9l0.4-2l-1.6-0.7l-1.8,8.4l1.8-0.4l0.8-3.9h5.3c1.1,0,2.1-0.1,2.9-0.4
	L89.7,91.5z"/>
<path class="st1" d="M86,85h4.5c2.4,0,3.8,1,3.8,3c0,2.8-2.2,3.5-4.6,3.6l2.7,1.1c2.4-0.7,3.7-2.3,3.7-4.8c0-3-2.3-4.4-5.2-4.4h-6.4
	l-1.1,5.4l1.6,0.7L86,85z"/>
<path class="st1" d="M104.1,87.9c-3.9,0-6.2,2.9-6.5,6.1l1.7-0.4c0.4-2.4,2.1-4.3,4.6-4.3c2,0,3.1,1.1,3.6,2.6l1.7-0.3
	C108.5,89.6,106.9,87.9,104.1,87.9z"/>
<path class="st1" d="M107.4,92c0.1,0.4,0.2,0.9,0.2,1.4c0,1.8-0.7,3.7-2.2,4.7l1.6,0.7c1.6-1.3,2.3-3.4,2.3-5.4
	c0-0.6-0.1-1.1-0.2-1.7L107.4,92z"/>
<path class="st1" d="M97.6,94c0,0.2,0,0.5,0,0.7l1.7,0.7c0-0.2-0.1-0.5-0.1-0.8c0-0.4,0-0.7,0.1-1L97.6,94z"/>
<path class="st1" d="M102.9,98.7c-2,0-3.4-1.3-3.7-3.2l-1.7-0.7c0,0,0,0,0,0.1c0,3.1,2,5.3,5.2,5.3c1.8,0,3.2-0.6,4.2-1.4l-1.6-0.7
	C104.7,98.5,103.9,98.7,102.9,98.7z"/>
<polygon class="st1" points="114.9,88.3 113.2,88.3 113.2,88.4 114.6,89.4 "/>
<polygon class="st1" points="113.2,88.4 112.6,90.9 114.4,90.6 114.6,89.4 "/>
<path class="st1" d="M120.4,93.8c-0.8,3.3-2.4,4.9-4.9,4.9c-2.4,0-2.5-1.9-2.1-3.8l0.9-4.4l-1.7,0.4l-0.9,4.4
	c-0.7,3.3,0.8,4.9,3.4,4.9c2.7,0,3.7-1.1,4.5-2.5c-0.2,0.8-0.4,1.8-0.4,2.2h1.6c0.2-1,0.4-2.1,0.6-3.1l0.4-1.9L120.4,93.8z"/>
<path class="st1" d="M123.2,88.7l-1.7,0.4l-0.9,4.1c0,0.2-0.1,0.4-0.2,0.6l1.5,1.1L123.2,88.7z"/>
<polygon class="st1" points="123.3,88.3 121.7,88.3 121.5,89.1 123.2,88.7 "/>
<path class="st1" d="M127.4,94.9c0.7-3.2,2.4-5.1,5.2-5.2L133,88c-1.9,0-3.7,0.9-4.8,3c0.3-1.1,0.5-2.4,0.5-2.8h-1.6
	c-0.2,1-0.4,2.3-0.7,3.4l-1.2,5.7l1.4,1.1L127.4,94.9z"/>
<polygon class="st1" points="125.2,97.4 124.7,99.8 126.4,99.8 126.7,98.4 "/>
<path class="st1" d="M150.6,95.5c-0.7,1.8-2.2,3.2-4.4,3.2c-2.7,0-4-1.9-3.5-4.8c0.2-1.1,0.7-2.1,1.4-2.9l-2.1-1.4
	c-0.1,0.5-0.2,1.2-0.4,2l-2.9,13.3h1.6l1.5-7.3c0.4,1.1,1.5,2.5,4.2,2.5c2.8,0,4.8-1.6,5.8-3.7L150.6,95.5z"/>
<path class="st1" d="M148.3,87.9c-2.5,0-3.9,1.2-4.8,2.5c0.2-1,0.4-1.9,0.4-2.2h-1.6c-0.1,0.4-0.1,0.8-0.2,1.4l2.1,1.4
	c0.9-1,2.2-1.7,3.7-1.7c2.2,0,3.3,1.5,3.3,3.6c0,0.9-0.2,1.7-0.5,2.5l1.4,0.9c0.5-1.1,0.8-2.3,0.8-3.5
	C152.8,90.1,151.2,87.9,148.3,87.9z"/>
<polygon class="st1" points="154.8,98.3 156.2,99.3 159.8,82.5 158.1,82.5 "/>
<polygon class="st1" points="154.5,99.8 156.1,99.8 156.2,99.3 154.8,98.3 "/>
<path class="st1" d="M169.6,93.2c-0.8,3.7-2.4,5.5-5,5.5c-2.4,0-2.5-1.9-2.1-3.8l1.4-6.7h-1.7l-1.5,7c-0.7,3.3,0.8,4.9,3.4,4.9
	c2.7,0,3.7-1.1,4.5-2.5c-0.2,0.8-0.4,1.8-0.4,2.2h1.6c0.2-1,0.4-2.1,0.6-3.1l1.8-8.5h-1.6L169.6,93.2z"/>
<path class="st1" d="M179.3,89.3c2.5,0,3.2,1.3,3.4,2.3h1.7c0-1-0.6-3.6-4.9-3.6c-2.8,0-4.6,1.3-4.6,3.4c0,1.5,0.8,2.4,4,3.1
	c2.5,0.5,3.2,1.2,3.2,2.3c0,1.4-1.4,2.1-3.2,2.1c-1.9,0-3.5-0.6-3.7-2.6h-1.6c0.1,2.6,2.1,4,5.2,4c3.3,0,5.2-1.6,5.2-3.7
	c0-1.7-1-2.7-4.2-3.4c-2.2-0.5-3.1-1-3.1-1.9C176.6,90,177.6,89.3,179.3,89.3z"/>
<path class="st1" d="M199.7,89.4c2.9,0,4.2,1.7,3.5,5c-0.1,0.6-0.3,1.2-0.6,1.8l1.4,1.6c0.1-0.4,0.2-0.8,0.3-1.3l3-14h-1.6l-1.6,7.8
	c-0.3-0.9-1.5-2.3-4.3-2.3c-1.4,0-2.6,0.4-3.6,1.1l1,1.1C197.9,89.7,198.7,89.4,199.7,89.4z"/>
<path class="st1" d="M202.6,96.2c-0.8,1.5-2.1,2.5-4.2,2.5c-2.3,0-3.5-1.5-3.5-3.9c0-1.9,0.8-3.7,2.3-4.7l-1-1.1
	c-1.9,1.3-3,3.6-3,5.9c0,3.1,1.7,5.2,4.8,5.2c2.3,0,3.5-0.9,4.4-2.1c-0.2,0.8-0.3,1.4-0.3,1.8h1.6c0.1-0.7,0.3-1.4,0.4-2.1
	L202.6,96.2z"/>
<path class="st1" d="M213.6,82.5h-1.7c-0.5,2.1-1.7,4.6-2.9,6.6h1.5C211.6,87.6,213.1,84.6,213.6,82.5z"/>
<polygon class="st1" points="217.4,88.3 215.7,88.3 213.3,99.8 214.9,99.8 "/>
<polygon class="st1" points="218.6,82.5 216.9,82.5 216.4,85 218,85 "/>
<path class="st1" d="M228.7,90.8c0.2,0.6,0.2,1.4,0,2.2l-1.4,6.8h1.6l1.4-6.7c0.4-2,0.1-3.4-0.7-4.2L228.7,90.8z"/>
<path class="st1" d="M226.8,87.9c-2.5,0-3.8,1.4-4.5,2.6c0.2-0.8,0.3-1.6,0.4-2.3h-1.6c-0.1,0.8-0.4,1.9-0.6,2.9l-1.8,8.7h1.6
	l1.1-5.3c0.6-2.9,2.3-5.1,4.9-5.1c1.4,0,2.1,0.5,2.4,1.4l1-1.9C229,88.2,228,87.9,226.8,87.9z"/>
<path class="st1" d="M239.8,89.6l0.3-1.4h-2.8l0.4-1.8c0.4-1.8,0.9-2.7,2.5-2.8c0.4,0,0.8,0.1,1.2,0.2l0.3-1.4
	c-0.3-0.1-0.9-0.2-1.5-0.2c-2.7,0-3.6,1.7-4.1,4l-0.4,1.9h-2.2l-0.3,1.4h2.2l-2.1,10.2h1.7l2.1-10.2h2.7V89.6z"/>
<path class="st1" d="M249.5,90.9c0.4,0.7,0.7,1.5,0.7,2.5c0,2.4-1.2,5-4.1,5.3l-0.6,1.5c4.4-0.1,6.4-3.5,6.4-6.8
	c0-1.6-0.5-3.1-1.6-4.1L249.5,90.9z"/>
<path class="st1" d="M245.5,98.7c-2.2,0-3.7-1.6-3.7-4c0-2.8,1.8-5.4,4.7-5.4c1.5,0,2.5,0.6,3.1,1.6l0.7-1.7
	c-0.9-0.8-2.1-1.3-3.6-1.3c-4.2,0-6.6,3.4-6.6,6.9c0,3.1,2,5.3,5.2,5.3c0.1,0,0.1,0,0.2,0l0.6-1.5C245.9,98.7,245.7,98.7,245.5,98.7
	z"/>
<path class="st1" d="M257,91c0.3-1.1,0.5-2.4,0.5-2.8h-1.6c-0.2,1-0.4,2.3-0.7,3.4l-1.7,8.2h1.7l1-4.9c0.7-3.2,2.4-5.1,5.2-5.2
	l0.4-1.7C259.9,88,258.1,89,257,91z"/>
<polygon class="st1" points="261.8,99.8 263.4,99.8 263.8,98.2 262,98.8 "/>
<polygon class="st1" points="269.4,99.8 271,99.8 271.9,95.6 270.2,96.2 "/>
<polygon class="st1" points="277,99.8 278.6,99.8 280.1,93 278.3,93.6 "/>
<path class="st1" d="M277,87.9c-2.3,0-3.6,1.2-4.4,2.4c-0.2-1.4-1.2-2.4-3.1-2.4c-2.2,0-3.3,1.2-4.1,2.3c0.1-0.6,0.4-1.8,0.4-2h-1.6
	c-0.2,1.1-0.4,2.1-0.6,3.2l-1.5,7.3l1.8-0.6l0.9-4.4c0.5-2.3,1.9-4.5,4.2-4.5c2.3,0,2.3,1.9,2,3.3l-0.7,3.4l1.8-0.6l0.4-2
	c0.5-2.6,2.1-4.2,4.1-4.2c2.4,0,2.4,1.9,2,3.3l-0.2,0.8l1.8-0.6l0.1-0.4C280.9,89.3,279.3,87.9,277,87.9z"/>
<path class="st1" d="M285.6,91.4c0-0.1,0.1-0.2,0.1-0.2l-0.8,0.2H285.6z"/>
<path class="st1" d="M289.3,89.3c0.7,0,1.2,0.1,1.6,0.2l2-0.6c-0.7-0.6-1.8-0.9-3.4-0.9c-2.1,0-3.4,0.5-4.2,1.3l0.8,1.5
	C286.5,89.8,287.5,89.3,289.3,89.3z"/>
<path class="st1" d="M285.2,89.2c-0.7,0.6-1.1,1.4-1.2,2.2h1l0.8-0.2c0.1-0.2,0.1-0.3,0.2-0.5L285.2,89.2z"/>
<path class="st1" d="M292.3,99.8c0.1-0.5,0.3-1.7,0.7-3.5l0.8-4c0.3-1.4,0.1-2.7-0.9-3.5l-2,0.6c1.4,0.5,1.5,1.6,1.3,2.7l-0.1,0.4
	c-0.9,0-2.7,0-3.6,0.1c-0.4,0-0.8,0.1-1.3,0.1l0.6,1.2c0.2,0,0.4,0,0.6-0.1c0.9-0.1,2-0.1,3.5-0.1l-0.1,0.3c-0.4,1.6-1,2.8-2.1,3.6
	l0.5,1c0.3-0.3,0.5-0.6,0.8-0.9c-0.1,0.6-0.3,1.3-0.3,1.7l0.1,0.2h1.5V99.8z"/>
<path class="st1" d="M290.8,99.8l-0.1-0.2c0,0.1,0,0.1,0,0.2H290.8z"/>
<path class="st1" d="M286.7,98.7c-1.7,0-2.6-0.8-2.6-2c0-1.8,1.8-2.4,3.7-2.6l-0.6-1.2c-2.1,0.3-4.8,1.1-4.8,4c0,1.5,1,3.3,4,3.3
	c1.9,0,3.1-0.5,4-1.3l-0.5-1C288.9,98.4,288,98.7,286.7,98.7z"/>
<polygon class="st1" points="301.1,84.4 299.5,84.4 298.9,86.9 300.7,86.4 "/>
<path class="st1" d="M296.9,96.6c-0.4,2.1,0.1,3.3,2.3,3.3c0.7,0,1.3-0.1,1.8-0.2l0.3-1.3c-0.3,0.1-1,0.2-1.5,0.2
	c-1.3,0-1.5-0.6-1.2-2.1l1.4-6.8h3l0.3-1.4h-3l0.4-1.9l-1.8,0.6l-0.3,1.3h-2.3l-0.3,1.4h2.3L296.9,96.6z"/>
<polygon class="st1" points="308.8,82.5 307.2,82.5 306.8,84.4 308.6,83.9 "/>
<polygon class="st1" points="306.8,84.4 306.7,85 308.3,85 308.6,83.9 "/>
<polygon class="st1" points="307.6,88.3 306,88.3 303.5,99.8 305.2,99.8 "/>
<path class="st1" d="M315.9,87.9c-4.2,0-6.6,3.4-6.6,6.9c0,3.1,2,5.3,5.2,5.3c4.5,0,6.6-3.4,6.6-6.8
	C321.1,90.6,319.4,87.9,315.9,87.9z M314.7,98.7c-2.2,0-3.7-1.6-3.7-4c0-2.8,1.8-5.4,4.7-5.4c2.5,0,3.7,1.8,3.7,4
	C319.4,96,318,98.7,314.7,98.7z"/>
<path class="st1" d="M334.5,93.1c0.8-3.8-1-5.1-3.6-5.1c-2.5,0-3.8,1.4-4.5,2.6c0.2-0.8,0.3-1.6,0.4-2.3h-1.6
	c-0.1,0.8-0.4,1.9-0.6,2.9l-1.6,7.4l1.8-0.6l0.7-3.4c0.6-2.9,2.3-5.1,4.9-5.1c2.4,0,2.8,1.5,2.4,3.6l-0.5,2.2l1.8-0.6L334.5,93.1z"
	/>
<polygon class="st1" points="322.8,99.8 324.4,99.8 324.8,97.9 323,98.6 "/>
<polygon class="st1" points="332.3,95.3 331.4,99.8 333,99.8 334.1,94.6 "/>
<path class="st1" d="M341.8,94.4c2.5,0.5,3.2,1.2,3.2,2.3c0,1.4-1.4,2.1-3.2,2.1c-1.9,0-3.5-0.6-3.7-2.6h-1.6c0.1,2.6,2.1,4,5.2,4
	c3.3,0,5.2-1.6,5.2-3.7c0-1.7-1-2.7-4.2-3.4c-1-0.2-1.7-0.4-2.2-0.7l-1.9,0.7C339.1,93.6,340.1,94,341.8,94.4z"/>
<path class="st1" d="M339.5,91.1c0-1.1,1-1.9,2.7-1.9c1.8,0,2.6,0.6,3,1.3l1.6-0.6c-0.5-1-1.8-2.1-4.5-2.1c-2.8,0-4.6,1.3-4.6,3.4
	c0,0.7,0.2,1.2,0.7,1.7l1.9-0.7C339.8,92,339.5,91.7,339.5,91.1z"/>
<path class="st1" d="M345.6,91.5h1.7c0-0.4-0.1-0.9-0.4-1.5l-1.6,0.6C345.5,90.9,345.6,91.2,345.6,91.5z"/>
<path class="st1" d="M347.4,102.7h1.5c1.1-1.3,2.6-4.1,3.2-6.3h-1.7C349.9,98.2,348.9,100.5,347.4,102.7z"/>
<path class="st1" d="M363.4,96.8c-0.5,0.3-1,0.6-1.5,0.8c0.7,1.5,2.1,2.5,4.4,2.5c0.2,0,0.4,0,0.6,0l-0.4-1.4
	C364.9,98.7,363.9,98,363.4,96.8z"/>
<path class="st1" d="M366.6,98.7L366.6,98.7l0.3,1.4c1.4-0.1,2.4-0.5,3.2-1.1l-0.3-1.7C369.1,98.2,368.1,98.7,366.6,98.7z"/>
<path class="st1" d="M372.2,96.2h-1.7c-0.2,0.4-0.5,0.8-0.8,1.1L370,99C371.2,98.3,371.8,97.2,372.2,96.2z"/>
<path class="st1" d="M361.3,95c0,1,0.2,1.9,0.6,2.7c0.5-0.3,1-0.6,1.5-0.8c-0.2-0.6-0.4-1.2-0.4-1.9c0-1.5,0.5-3.1,1.5-4.1l-0.4-1.6
	C362.3,90.5,361.3,92.8,361.3,95z"/>
<path class="st1" d="M367.9,87.9c-1.5,0-2.8,0.5-3.8,1.2l0.4,1.6c0.8-0.9,1.9-1.5,3.2-1.5c0.2,0,0.3,0,0.5,0L367.9,87.9L367.9,87.9z
	"/>
<path class="st1" d="M367.9,87.9l0.3,1.4c2,0.2,2.8,1.4,3,2.7h1.6l0,0C372.8,90.5,371.7,88,367.9,87.9z"/>
<path class="st1" d="M372.8,92L372.8,92L372.8,92z"/>
<path class="st1" d="M384.9,89.4l-0.7,1.9c0.3,0.6,0.5,1.3,0.5,2.1c0,2.1-0.9,4.3-3,5.1l-0.6,1.6c3.6-0.6,5.3-3.7,5.3-6.7
	C386.3,91.9,385.8,90.4,384.9,89.4z"/>
<path class="st1" d="M379.8,100.2c0.5,0,0.9,0,1.3-0.1l0.6-1.6c-0.5,0.2-1,0.3-1.7,0.3c-1,0-1.8-0.3-2.4-0.9l-0.8,1.5
	C377.5,99.9,378.6,100.2,379.8,100.2z"/>
<path class="st1" d="M381.6,88c-1.9,0.9-3.9,1.8-5.8,2.7c-0.8,1.2-1.3,2.7-1.3,4.2c0,2,0.8,3.6,2.2,4.5l0.8-1.5
	c-0.8-0.7-1.3-1.8-1.3-3.1c0-2.8,1.8-5.4,4.7-5.4c0.4,0,0.8,0.1,1.2,0.2l0.7-1.3C382.5,88.1,382.1,88,381.6,88z"/>
<path class="st1" d="M382.1,89.5c1,0.3,1.7,0.9,2.1,1.8l0.7-1.9c-0.5-0.5-1.2-1-2-1.2L382.1,89.5z"/>
<path class="st1" d="M381.1,87.9c-2.4,0-4.2,1.1-5.3,2.7c1.9-0.9,3.9-1.8,5.8-2.7C381.4,88,381.3,87.9,381.1,87.9z"/>
<path class="st1" d="M391.6,90.6c0.2-0.8,0.3-1.6,0.4-2.3h-1.6c-0.1,0.8-0.4,1.9-0.6,2.9l-1.8,8.7h1.6l1.1-5.3
	c0.5-2.4,1.7-4.3,3.7-4.9l-0.8-1C392.7,89.1,392,89.9,391.6,90.6z"/>
<path class="st1" d="M399.7,93.1c0.8-3.8-1-5.1-3.6-5.1c-1,0-1.9,0.3-2.5,0.6l0.8,1c0.4-0.1,0.8-0.2,1.2-0.2c2.4,0,2.8,1.5,2.4,3.6
	l-0.2,1l1.3,1.7L399.7,93.1z"/>
<polygon class="st1" points="397.8,94 396.6,99.8 398.2,99.8 399.1,95.7 "/>
<path class="st1" d="M403.3,96.2h-1.6c0.1,2,1.3,3.3,3.2,3.7l0.5-1.3C404.3,98.3,403.5,97.6,403.3,96.2z"/>
<path class="st1" d="M409.6,88.2l-0.5,1.3c1.2,0.4,1.6,1.3,1.8,2h1.7C412.5,90.7,412.1,88.8,409.6,88.2z"/>
<path class="st1" d="M407.1,94.4c0.1,0,0.1,0,0.2,0l-0.1-0.2L407.1,94.4z"/>
<path class="st1" d="M408.7,98.6c-0.5,0.2-1,0.3-1.6,0.3s-1.1-0.1-1.6-0.2L405,100c0.6,0.1,1.2,0.2,2,0.2c0.9,0,1.6-0.1,2.3-0.3
	L408.7,98.6z"/>
<path class="st1" d="M412,96.5c0-1.7-1-2.7-4.2-3.4h-0.1l-0.5,1.2l0.1,0.2c2.3,0.5,3,1.2,3,2.2c0,0.9-0.6,1.6-1.6,1.9l0.4,1.3
	C411,99.3,412,98.1,412,96.5z"/>
<path class="st1" d="M407.5,89.3c0.7,0,1.2,0.1,1.6,0.2l0.5-1.3c-0.6-0.1-1.2-0.2-2-0.2c-0.9,0-1.7,0.2-2.4,0.4l0.4,1.3
	C406.1,89.4,406.7,89.3,407.5,89.3z"/>
<path class="st1" d="M407.7,93c-0.4-0.1-0.7-0.2-1-0.3l0.5,1.5L407.7,93z"/>
<path class="st1" d="M406.7,92.7c-1.4-0.4-1.9-0.8-1.9-1.6c0-0.6,0.3-1.1,0.9-1.5l-0.4-1.3c-1.4,0.5-2.2,1.6-2.2,2.9
	c0,1.5,0.8,2.4,4,3.1c0,0,0,0,0.1,0l0.1-0.2L406.7,92.7z"/>
<polygon class="st1" points="417.7,88.3 416.1,88.3 415.7,90 416.8,92.6 "/>
<path class="st1" d="M418.4,98.7c-2.4,0-2.5-1.9-2.1-3.8l0.5-2.3l-1.1-2.6l-1.1,5.3c-0.7,3.3,0.8,4.9,3.4,4.9c0.8,0,1.4-0.1,1.9-0.3
	l-0.5-1.3C419.1,98.7,418.8,98.7,418.4,98.7z"/>
<polygon class="st1" points="425.9,89.5 426.2,88.3 424.7,88.3 "/>
<path class="st1" d="M424.5,88.3l-1,4.9c-0.7,3.3-2,5.1-4.1,5.5l0.5,1.3c1.3-0.4,2-1.3,2.6-2.2c-0.2,0.8-0.4,1.8-0.4,2.2h1.6
	c0.2-1,0.4-2.1,0.6-3.1l1.5-7.2l-1.2-1.3h-0.1V88.3z"/>
<polygon class="st1" points="432.9,82.5 431.3,82.5 430.4,86.4 431.9,87.4 "/>
<polygon class="st1" points="430.4,86.4 429.1,92.9 430.4,94.3 431.9,87.4 "/>
<polygon class="st1" points="427.6,99.8 429.3,99.8 430.4,94.3 429.1,92.9 "/>
<polygon class="st1" points="436,89.6 435.8,90.2 437.3,91.2 437.6,89.6 440.6,89.6 440.9,88.3 437.9,88.3 438.7,84.4 437.1,84.4 
	436.3,88.3 434,88.3 433.9,88.8 435,89.6 "/>
<polygon class="st1" points="433.9,88.8 433.7,89.6 435,89.6 "/>
<path class="st1" d="M436.8,99.9c0.7,0,1.3-0.1,1.8-0.2l0.3-1.3c-0.3,0.1-1,0.2-1.5,0.2c-1.3,0-1.5-0.6-1.2-2.1l1.1-5.3l-1.4-1
	l-1.4,6.4c-0.2,0.7-0.2,1.4-0.1,1.9l1.2,1.3C436,99.9,436.3,99.9,436.8,99.9z"/>
<path class="st1" d="M435.6,99.8l-1.2-1.3C434.6,99.1,435,99.6,435.6,99.8z"/>
<path class="st1" d="M442.9,95.2l-1.6-1.1c0,0.3-0.1,0.6-0.1,0.9c0,1.1,0.2,2.1,0.7,2.9l1.1-1.8C442.9,95.8,442.9,95.5,442.9,95.2z"
	/>
<path class="st1" d="M443,96.1l-1.1,1.8c0.3,0.5,0.7,1,1.1,1.3l1.4-0.9C443.7,97.8,443.2,97.1,443,96.1z"/>
<path class="st1" d="M446.4,98.7c-0.8,0-1.4-0.2-2-0.5l-1.4,0.9c0.8,0.6,1.9,1,3.2,1c1.2,0,2.2-0.2,3-0.6l-1.4-1
	C447.3,98.7,446.9,98.7,446.4,98.7z"/>
<path class="st1" d="M450.2,94.4h2.4c0.1-0.6,0.2-1.1,0.2-1.6v-0.1L450.2,94.4z"/>
<path class="st1" d="M443.1,93.1c0.5-2.2,2-3.5,4-3.7L448,88c-0.1,0-0.1,0-0.2,0c-3.8,0-6.2,2.9-6.6,6.1l1.6,1.1c0-0.1,0-0.1,0-0.2
	c0-0.2,0-0.4,0-0.5h1.1l0.8-1.3L443.1,93.1L443.1,93.1z"/>
<path class="st1" d="M448,88l-0.9,1.4c0.2,0,0.3,0,0.5,0c2.6,0,3.5,1.6,3.5,3.3c0,0.2,0,0.4,0,0.5h-6.3l-0.8,1.3h6.2l2.5-1.7
	C452.7,90.2,451.3,88,448,88z"/>
<path class="st1" d="M447.7,98.6l1.4,1c1.4-0.6,2.2-1.7,2.8-2.9h-1.7C449.6,97.7,448.8,98.3,447.7,98.6z"/>
<polygon class="st1" points="457.7,88.3 456,88.3 455.6,89.7 457.4,89.7 457.7,89.5 "/>
<polygon class="st1" points="457.7,89.5 457.4,89.7 457.7,89.7 "/>
<polygon class="st1" points="457.7,88.3 457.7,89.5 459.5,88.3 "/>
<polygon class="st1" points="457.7,89.5 457.7,89.7 461.2,89.7 461.3,88.3 459.5,88.3 "/>
<polygon class="st1" points="460.9,99.8 464,99.8 464.6,98.5 460.9,98.5 "/>
<polygon class="st1" points="461.2,89.7 463.4,89.7 461.1,91.7 461.1,93.7 465.6,89.6 465.8,88.3 461.3,88.3 "/>
<polygon class="st1" points="457.7,99.8 460.9,99.8 460.9,98.5 457.7,98.5 "/>
<polygon class="st1" points="457.7,98.5 456,98.5 457.7,96.9 457.7,94.9 453.8,98.6 453.5,99.8 457.7,99.8 "/>
<polygon class="st1" points="457.7,96.9 461.1,93.7 461.1,91.7 457.7,94.9 "/>
<polygon class="st1" points="490.5,99.8 491.4,95.4 489.5,96.7 489,99.1 489.2,99.8 "/>
<polygon class="st1" points="489.2,99.8 489,99.1 488.9,99.8 "/>
<path class="st1" d="M489.5,96.7l1.9-1.2l0.6-2.8c0.7-3.4-0.9-4.7-3.1-4.7c-0.9,0-1.7,0.2-2.3,0.5l0.3,1.3c0.4-0.2,0.9-0.3,1.5-0.3
	c2.4,0,2.4,1.9,2,3.3L489.5,96.7z"/>
<polygon class="st1" points="474.6,95.1 473.6,99.8 475.3,99.8 476,96.3 "/>
<path class="st1" d="M482.3,88c-0.3-0.1-0.6-0.1-0.9-0.1c-2.2,0-3.3,1.2-4.1,2.3c0.1-0.6,0.3-1.8,0.4-2h-1.6
	c-0.2,1.1-0.4,2.1-0.6,3.2l-0.8,3.6l1.4,1.2l0.5-2.4c0.5-2.3,1.9-4.5,4.2-4.5c0.4,0,0.6,0.1,0.9,0.1L482.3,88z"/>
<path class="st1" d="M486.9,89.7l-0.3-1.3c-0.9,0.5-1.6,1.2-2.1,1.9c-0.2-1.2-0.9-2.1-2.2-2.4l-0.6,1.5c1.4,0.4,1.3,2,1.1,3.2
	l-0.2,1.1l1.3,1.4l0.3-1.6C484.6,91.7,485.6,90.3,486.9,89.7z"/>
<polygon class="st1" points="481.2,99.8 482.9,99.8 483.9,95.2 482.5,93.8 "/>
<path class="st1" d="M502.7,88.1l-1.9,1.3c0.1,0,0.2,0,0.3,0c2.8,0,3.2,1.4,2.9,2.9l-0.1,0.4c-0.9,0-2.7,0-3.6,0.1
	c-2,0.2-6.2,0.5-6.2,4.1c0,1.5,1,3.3,4,3.3c2.6,0,3.9-0.9,4.7-2.2c-0.1,0.7-0.3,1.5-0.3,1.9h1.6c0.1-0.5,0.3-1.7,0.7-3.5l0.8-4
	C506.1,90.3,505.4,88.5,502.7,88.1z M503.6,94.3c-0.7,2.8-2,4.4-5.1,4.4c-1.7,0-2.6-0.8-2.6-2c0-2,2.2-2.5,4.3-2.7
	c0.9-0.1,2-0.1,3.5-0.1L503.6,94.3z"/>
<path class="st1" d="M501.3,87.9c-3.8,0-5.1,1.7-5.5,3.5h1.7c0.4-1.3,1.3-2,3.3-2.1l1.9-1.3C502.3,88,501.8,87.9,501.3,87.9z"/>
<path class="st1" d="M524.9,92h1.6c0-1.3-0.8-3.3-3.2-3.9l-1.3,1.3C523.9,89.6,524.7,90.9,524.9,92z"/>
<path class="st1" d="M522,98.4l0.5,1.3c1.8-0.7,2.8-2.1,3.4-3.5h-1.7C523.7,97.2,523.1,98,522,98.4z"/>
<path class="st1" d="M520.3,98.7c-2.4,0-3.5-1.6-3.5-3.8c0-0.1,0-0.2,0-0.3l-1.6,1.6c0.4,2.2,1.9,3.9,4.9,3.9c1,0,1.8-0.2,2.5-0.4
	l-0.5-1.3C521.5,98.6,521,98.7,520.3,98.7z"/>
<path class="st1" d="M515,95c0,0.4,0,0.8,0.1,1.2l1.6-1.6c0.1-1.7,0.7-3.3,1.9-4.3l-0.6-1.4C516.1,90.3,515,92.6,515,95z"/>
<path class="st1" d="M521.4,89.4c0.2,0,0.4,0,0.6,0l1.3-1.3c-0.5-0.1-1.1-0.2-1.7-0.2c-1.1,0-2.1,0.3-3,0.7l1.1,1
	C520.2,89.5,520.8,89.4,521.4,89.4z"/>
<path class="st1" d="M518.6,88.7c-0.2,0.1-0.3,0.2-0.5,0.3l0.6,1.4c0.3-0.3,0.6-0.5,1-0.6L518.6,88.7z"/>
<path class="st1" d="M535,89.3c0.2,0,0.3,0,0.4,0l-0.2-1.4l0,0c-3.8,0-5.1,1.7-5.5,3.5h1.7C531.8,90,532.8,89.3,535,89.3z"/>
<path class="st1" d="M536,92.6l0.2,1.3c0.4,0,0.8,0,1.3,0l-0.1,0.3c-0.2,0.8-0.5,1.6-0.8,2.2l0.6,3.4h0.8c0-0.1,0-0.2,0.1-0.4
	l-0.5-6.9C537.1,92.6,536.6,92.6,536,92.6z"/>
<path class="st1" d="M535.2,88l0.2,1.4c0.9,0.1,1.5,0.3,1.9,0.6l-0.1-1.7C536.6,88,536,88,535.2,88z"/>
<path class="st1" d="M539.6,92.4c0.4-1.9-0.2-3.6-2.4-4.2l0.1,1.7c0.7,0.6,0.8,1.4,0.6,2.3l-0.1,0.4c-0.1,0-0.2,0-0.3,0l0.5,6.9
	c0.1-0.6,0.3-1.7,0.6-3.2L539.6,92.4z"/>
<path class="st1" d="M532.4,98.7c-1.7,0-2.6-0.8-2.6-2c0-2,2.2-2.5,4.3-2.7c0.6-0.1,1.3-0.1,2.1-0.1l-0.2-1.3c-0.7,0-1.4,0-1.8,0.1
	c-2,0.2-6.2,0.5-6.2,4.1c0,0.3,0.1,0.6,0.1,0.9l2.3,2.2c0.5,0.1,1,0.2,1.6,0.2c2.6,0,3.9-0.9,4.7-2.2c-0.1,0.7-0.3,1.5-0.3,1.9h0.9
	l-0.6-3.4C535.9,97.9,534.6,98.7,532.4,98.7z"/>
<path class="st1" d="M530.5,99.9l-2.3-2.2C528.4,98.7,529.1,99.6,530.5,99.9z"/>
<path class="st1" d="M550,88c-1.9,0-3.7,0.9-4.8,3c0.3-1.1,0.5-2.4,0.5-2.8h-1.6c-0.1,0.4-0.1,0.8-0.2,1.2l1.4,3
	c0.9-1.7,2.3-2.6,4.3-2.7L550,88z"/>
<path class="st1" d="M544,89.5c-0.1,0.7-0.3,1.5-0.5,2.2l-1.7,8.2h1.7l1-4.9c0.2-1,0.5-1.8,0.9-2.5L544,89.5z"/>
<path class="st1" d="M552,96.6c-0.4,2.1,0.1,3.3,2.3,3.3c0.7,0,1.3-0.1,1.8-0.2l0.3-1.3c-0.3,0.1-1,0.2-1.5,0.2
	c-1.3,0-1.5-0.6-1.2-2.1l1.1-5.4l-2.2,2.5L552,96.6z"/>
<polygon class="st1" points="556.1,89.6 558.1,89.6 558.4,88.3 557.3,88.3 "/>
<polygon class="st1" points="555.5,88.3 556.3,84.4 554.6,84.4 553.8,88.3 551.5,88.3 551.2,89.6 553.5,89.6 552.7,93.6 554.8,91.1 
	555.1,89.6 556.1,89.6 557.3,88.3 "/>
<path class="st1" d="M569.5,96.7h-1.7c-0.6,1-1.4,1.6-2.4,1.9l-0.3,1.5C567.5,99.7,568.7,98.3,569.5,96.7z"/>
<path class="st1" d="M568.7,92.6c0,0.2,0,0.4,0,0.5h-2.3l-0.3,1.3h4c0.1-0.6,0.2-1.1,0.2-1.6c0-2-0.9-3.8-3-4.5l-0.3,1.5
	C568.2,90.3,568.7,91.4,568.7,92.6z"/>
<path class="st1" d="M560.4,94.9c0-0.2,0-0.4,0-0.5h5.7l0.3-1.3h-5.7c0.6-2.4,2.2-3.8,4.5-3.8c0.8,0,1.4,0.2,1.9,0.4l0.3-1.5
	c-0.6-0.2-1.2-0.3-2-0.3c-4.2,0-6.6,3.4-6.6,7c0,3.2,1.8,5.2,5,5.2c0.5,0,0.9,0,1.3-0.1l0.3-1.5c-0.4,0.1-0.9,0.2-1.4,0.2
	C561.8,98.7,560.4,97.5,560.4,94.9z"/>
<polygon class="st1" points="577.7,105 579.3,105 580.2,100.6 578.4,101.3 "/>
<path class="st1" d="M587.1,87.9c-2.5,0-3.9,1.2-4.8,2.5c0.2-1,0.4-1.9,0.4-2.2h-1.6c-0.1,0.7-0.3,1.7-0.6,3.3l1.4,1.4
	c0.7-2.1,2.5-3.6,4.8-3.6c2.2,0,3.3,1.5,3.3,3.6c0,2-0.9,4.1-2.5,5.1l3.1-1.1c0.7-1.2,1.1-2.7,1.1-4.1
	C591.6,90.1,590.1,87.9,587.1,87.9z"/>
<path class="st1" d="M581.6,94c0.1-0.3,0.2-0.6,0.3-0.9l-1.4-1.4l0,0l-2.1,9.6l1.8-0.6l0.6-2.9c0.3,0.7,0.8,1.5,2,2l2.9-1
	c-0.2,0-0.4,0-0.7,0C582.4,98.7,581.1,96.9,581.6,94z"/>
<path class="st1" d="M587,98.3l1.1,1.1c1.1-0.6,1.9-1.4,2.5-2.4l-3.1,1.1C587.3,98.2,587.1,98.2,587,98.3z"/>
<path class="st1" d="M587,98.3c-0.4,0.2-0.8,0.3-1.3,0.4l-2.9,1c0.6,0.3,1.3,0.4,2.3,0.4c1.2,0,2.2-0.3,3-0.7L587,98.3z"/>
<polygon class="st1" points="594.2,95.7 596,95.1 597.4,88.3 595.8,88.3 "/>
<polygon class="st1" points="598.7,82.5 597,82.5 596.5,85 598.1,85 "/>
<polygon class="st1" points="593.3,99.8 595,99.8 596,95.1 594.2,95.7 "/>
<polygon class="st1" points="598.9,99.8 600.6,99.8 602,92.9 600.2,93.6 "/>
<polygon class="st1" points="604.2,82.5 602.6,82.5 601.2,89.2 602.6,90.3 "/>
<polygon class="st1" points="601.2,89.2 600.2,93.6 602,92.9 602.6,90.3 "/>
<path class="st1" d="M612.5,98.1c-0.7,0.4-1.4,0.6-2.4,0.6c-2.2,0-3.7-1.6-3.7-4c0-0.5,0.1-0.9,0.2-1.3l-1.4-1.1
	c-0.3,0.8-0.4,1.7-0.4,2.5c0,3.1,2,5.3,5.2,5.3c1.6,0,2.8-0.4,3.8-1.1L612.5,98.1z"/>
<path class="st1" d="M607.7,90.9l-2.4,0.8c-0.1,0.2-0.1,0.4-0.2,0.5l1.4,1.1C606.7,92.5,607.1,91.6,607.7,90.9z"/>
<path class="st1" d="M616.5,93.3c0-1.9-0.8-3.7-2.4-4.7l-2.2,0.8c2,0.4,2.9,2,2.9,4c0,1.8-0.7,3.7-2.3,4.7l1.2,1
	C615.6,97.8,616.5,95.6,616.5,93.3z"/>
<path class="st1" d="M611.1,89.4c0.3,0,0.6,0,0.8,0.1l2.2-0.8c-0.8-0.5-1.7-0.7-2.8-0.7c-2.9,0-5,1.6-5.9,3.8l2.4-0.8
	C608.5,90,609.7,89.4,611.1,89.4z"/>
<polygon class="st1" points="623.5,84.4 621.9,84.4 621.5,86 623.3,85.4 "/>
<path class="st1" d="M619.3,96.6c-0.4,2.1,0.1,3.3,2.3,3.3c0.7,0,1.3-0.1,1.8-0.2l0.3-1.3c-0.3,0.1-1,0.2-1.5,0.2
	c-1.3,0-1.5-0.6-1.2-2.1l1.4-6.8h3l0.3-1.4h-3l0.6-2.9l-1.8,0.6l-0.5,2.2h-2.3l-0.3,1.4h2.3L619.3,96.6z"/>
<path class="st1" d="M631,100.2c3.3,0,4.8-1.6,5.7-3.5H635c-0.9,1.4-2,2.1-3.8,2.1c-0.2,0-0.3,0-0.5,0l-0.3,1.4
	C630.6,100.1,630.8,100.2,631,100.2z"/>
<path class="st1" d="M627.9,93.1c0.6-2.4,2.2-3.8,4.5-3.8c0.2,0,0.4,0,0.6,0l0.3-1.4c-0.2,0-0.5-0.1-0.7-0.1c-4.2,0-6.6,3.4-6.6,7
	c0,3,1.6,4.9,4.4,5.1l0.3-1.4c-1.9-0.2-3.1-1.4-3.1-3.8c0-0.2,0-0.4,0-0.5h4.1l0.3-1.3h-4.1V93.1z"/>
<path class="st1" d="M633.3,88l-0.3,1.4c2.2,0.2,2.9,1.7,2.9,3.3c0,0.2,0,0.4,0,0.5h-3.8l-0.3,1.3h5.6c0.1-0.6,0.2-1.1,0.2-1.6
	C637.5,90.4,636.3,88.3,633.3,88z"/>
<path class="st1" d="M354.6,133.7h-5.2l8.5,8.5c0.3,0.3,0.7,0.4,1,0.5l-0.1-4.7L354.6,133.7z"/>
<path class="st1" d="M349,128.1c-0.7-0.7-1.9-0.7-2.6,0s-0.7,1.9,0,2.6l3,3h5.2L349,128.1z"/>
<path class="st1" d="M372,130.7c0.8-0.7,0.8-1.8,0-2.6c-0.7-0.7-1.9-0.7-2.6,0l-5.6,5.6h5.2L372,130.7z"/>
<path class="st1" d="M363.8,133.7l-4.6,4.6l-0.3-0.3l0.1,4.7c0.6,0.1,1.1-0.1,1.6-0.5l8.5-8.5H363.8z"/>
</svg>
